<svg xmlns="http://www.w3.org/2000/svg"><style>:root svg:not(:target){display:none}</style><svg viewBox="0 0 24 2" fill="none" id="burger"><path stroke="#000" stroke-width="2" d="M0 1h24"></path></svg><svg viewBox="0 0 134 56" fill="none" id="cat-mass-desktop"><g clip-path="url(#cat-mass-desktop_0)"><path d="M123.12 5.76a15.2 15.2 0 0 1 4.5-4.6c1-.7 1.6-.7 2.2.6.8 1.9 1.5 3.9.9 6a2.29 2.29 0 0 0 .4 2.1c.6.8 1.1 1.6 1.6 2.3a6.27 6.27 0 0 1 .9 6.2 5.38 5.38 0 0 0-.2 3.1c.2.99.2 2 0 3a3.75 3.75 0 0 1-2.7 3.2 5.21 5.21 0 0 0-3.2 2 1.05 1.05 0 0 1-.9.5c-1.2.2-4.2-2.5-4.2-3.7v-.6c.1-3.6-.1-3.9-3.4-5.4a4.4 4.4 0 0 1-1.8-1.2c-.6-.8-1.4-.7-2.3-.4-.9.3-1.4.9-1.3 1.9.3 2.42.4 4.86.3 7.3 0 .28.07.55.2.8 3.1 4.5 4.3 9.8 5.8 14.9 1.2 3.9 3.4 6 7.4 6.3.64.05 1.27.15 1.9.3a4.16 4.16 0 0 1 3.4 3.2c.7 2.1.3 2.6-1.8 2.6h-6.5a3.24 3.24 0 0 1-2.3-.8 11.71 11.71 0 0 0-3.4-2 7.26 7.26 0 0 1-3.4-2.6 28.58 28.58 0 0 0-4-4.5c-2.8-2.9-5.8-5.7-8.4-8.7a11.38 11.38 0 0 1-3.2-7.6c0-.9-.2-1.3-1.2-.9-.3.19-.65.3-1 .3-2.8 0-4.2 1.7-5.2 4.2-.9 2.1-2.1 4.1-3.2 6.2a10.4 10.4 0 0 0-1 4.2c0 2.4.6 3.2 2.8 4 1.4.5 2.7 1 3.4 2.4.8 1.6.6 2-1.1 2.1h-6.8a1.88 1.88 0 0 1-1.9-1.1l-1.8-3a6.05 6.05 0 0 1-.7-5.4c.43-1.74.47-3.55.1-5.3a8.42 8.42 0 0 1 1.7-7c.6-.7.6-1-.4-1.2a50.07 50.07 0 0 1-11.87-4.13.1.1 0 0 1-.03-.07c-3.2-1.2-3.8-1-4.7 2.3-.8 2.8-1.6 5.6-2.2 8.5-.7 3.2.1 6.2 1.1 9.2.4 1.2 1.6 1.1 2.5 1.4 2 .6 3.7 1.4 4.5 3.5.7 1.6.6 1.8-1.1 1.8-1.7 0-3.4-.1-5.2 0a6.7 6.7 0 0 1-4.2-1.4c-4.8-3.2-6.2-8.1-6.6-13.4-.2-3.3-2-5.9-4.1-8.4-.4-.5-.8-.7-1.4-.3a44.32 44.32 0 0 1-6.7 3 26.71 26.71 0 0 0-12.2 8.8 10.63 10.63 0 0 0-2.2 5.1c-.3 1.8.2 2.6 2 3.1s2.7 1.5 2.9 3.4c.1.8-.2 1.2-1 1.2h-8.1a1.65 1.65 0 0 1-1.3-.8 8.56 8.56 0 0 1-1.9-5.5c-.05-3.46.25-6.91.9-10.3a6.3 6.3 0 0 1 3.4-4.8c5.9-2.8 9-8.1 11.8-13.6.6-1.1.1-1.3-.9-1.2-2.8.39-5.45 1.49-7.7 3.2a70.62 70.62 0 0 0-8.3 7.1 16.67 16.67 0 0 1-10.3 4.9c-7.3.4-10.7-3.7-10.4-10.3a9.67 9.67 0 0 1 2.4-6.1 4.25 4.25 0 0 1 4.5-1.5c1.5.4 1.9 1.2 1.3 2.7-.3.6-.7 1.1-1 1.7a7.5 7.5 0 0 0-1 2c-1.1 3 .4 5.1 3.5 5.4 3.3.3 6-1.1 8.5-3.1 3.01-2.41 5.7-5.2 8-8.3a20.79 20.79 0 0 1 14.4-8.1c2.3-.3 4.3-1.3 6.5-1.9a41.51 41.51 0 0 1 12.7-1.8 13 13 0 0 0 5.8-1.1c4.9-2 10-2 15.1-1 4 .8 8 1.8 11.9 2.8 2.32.43 4.7.36 7-.2a67.8 67.8 0 0 1 13.4-2c2.96-.15 5.91.44 8.6 1.7 2 .9 2 .9 1.5 2.8Z" fill="#000"></path></g><defs><clipPath id="cat-mass-desktop_0"><path fill="#fff" d="M0 0h134v56h-134z"></path></clipPath></defs></svg><svg viewBox="0 0 67 28" fill="none" id="cat-mass-mobile"><g clip-path="url(#cat-mass-mobile_0)"><path d="M60.56 2.88a7.6 7.6 0 0 1 2.25-2.3c.5-.35.8-.35 1.1.3.4.95.75 1.95.45 3a1.14 1.14 0 0 0 .2 1.05c.3.4.55.8.8 1.15a3.13 3.13 0 0 1 .45 3.1c-.18.5-.22 1.03-.1 1.55.1.5.1 1 0 1.5a1.87 1.87 0 0 1-1.35 1.6 2.6 2.6 0 0 0-1.6 1 .53.53 0 0 1-.45.25c-.6.1-2.1-1.25-2.1-1.85v-.3c.05-1.8-.05-1.95-1.7-2.7a2.2 2.2 0 0 1-.9-.6c-.3-.4-.7-.35-1.15-.2-.45.15-.7.45-.65.95.15 1.2.2 2.43.15 3.65 0 .14.04.27.1.4 1.55 2.25 2.15 4.9 2.9 7.45.6 1.95 1.7 3 3.7 3.15.32.02.64.07.95.15a2.08 2.08 0 0 1 1.7 1.6c.35 1.05.15 1.3-.9 1.3h-3.25c-.42.02-.83-.12-1.15-.4a5.86 5.86 0 0 0-1.7-1 3.63 3.63 0 0 1-1.7-1.3 14.3 14.3 0 0 0-2-2.25c-1.4-1.45-2.9-2.85-4.2-4.35a5.69 5.69 0 0 1-1.6-3.8c0-.45-.1-.65-.6-.45a.96.96 0 0 1-.5.15c-1.4 0-2.1.85-2.6 2.1-.45 1.05-1.05 2.05-1.6 3.1a5.2 5.2 0 0 0-.5 2.1c0 1.2.3 1.6 1.4 2 .7.25 1.35.5 1.7 1.2.4.8.3 1-.55 1.05h-3.4a.94.94 0 0 1-.95-.55l-.9-1.5a3.02 3.02 0 0 1-.35-2.7c.22-.87.23-1.78.05-2.65a4.21 4.21 0 0 1 .85-3.5c.3-.35.3-.5-.2-.6a25.03 25.03 0 0 1-5.95-2.1c-1.6-.6-1.9-.5-2.35 1.15-.4 1.4-.8 2.8-1.1 4.25-.35 1.6.05 3.1.55 4.6.2.6.8.55 1.25.7 1 .3 1.85.7 2.25 1.75.35.8.3.9-.55.9-.85 0-1.7-.05-2.6 0-.76.01-1.5-.23-2.1-.7-2.4-1.6-3.1-4.05-3.3-6.7-.1-1.65-1-2.95-2.05-4.2-.2-.25-.4-.35-.7-.15-1.07.59-2.2 1.1-3.35 1.5a13.36 13.36 0 0 0-6.1 4.4 5.32 5.32 0 0 0-1.1 2.55c-.15.9.1 1.3 1 1.55s1.35.75 1.45 1.7c.05.4-.1.6-.5.6h-4.05a.82.82 0 0 1-.65-.4 4.28 4.28 0 0 1-.95-2.75 25.3 25.3 0 0 1 .45-5.15 3.15 3.15 0 0 1 1.7-2.4c2.95-1.4 4.5-4.05 5.9-6.8.3-.55.05-.65-.45-.6-1.4.2-2.73.74-3.85 1.6a35.31 35.31 0 0 0-4.15 3.55 8.33 8.33 0 0 1-5.15 2.45c-3.65.2-5.35-1.85-5.2-5.15.03-1.13.46-2.2 1.2-3.05a2.13 2.13 0 0 1 2.25-.75c.75.2.95.6.65 1.35-.15.3-.35.55-.5.85-.22.3-.39.64-.5 1-.55 1.5.2 2.55 1.75 2.7 1.65.15 3-.55 4.25-1.55 1.5-1.2 2.85-2.6 4-4.15a10.4 10.4 0 0 1 7.2-4.05c1.15-.15 2.15-.65 3.25-.95a20.7 20.7 0 0 1 6.35-.9 6.5 6.5 0 0 0 2.9-.55c2.45-1 5-1 7.55-.5 2 .4 4 .9 5.95 1.4 1.16.21 2.35.18 3.5-.1 2.2-.56 4.44-.9 6.7-1a9.08 9.08 0 0 1 4.3.85c1 .45 1 .45.75 1.4Z" fill="#000"></path></g><defs><clipPath id="cat-mass-mobile_0"><path fill="#fff" d="M0 0h67v28h-67z"></path></clipPath></defs></svg><svg viewBox="0 0 268 112" fill="none" id="cat-mass-tablet"><g clip-path="url(#cat-mass-tablet_0)"><path d="M246.24 11.51a30.4 30.4 0 0 1 9-9.2c2-1.4 3.2-1.4 4.4 1.2 1.6 3.8 3 7.8 1.8 12a4.59 4.59 0 0 0 .8 4.2c1.2 1.6 2.2 3.2 3.2 4.6a12.54 12.54 0 0 1 1.8 12.4 10.86 10.86 0 0 0-.4 6.2c.4 1.98.4 4.02 0 6a7.5 7.5 0 0 1-5.4 6.4 10.42 10.42 0 0 0-6.4 4 2.09 2.09 0 0 1-1.8 1c-2.4.4-8.4-5-8.4-7.4v-1.2c.2-7.2-.2-7.8-6.8-10.8a8.78 8.78 0 0 1-3.6-2.4c-1.2-1.6-2.8-1.4-4.6-.8-1.8.6-2.8 1.8-2.6 3.8.6 4.85.8 9.73.6 14.6.01.56.15 1.1.4 1.6 6.2 9 8.6 19.6 11.6 29.8 2.4 7.8 6.8 12 14.8 12.6 1.28.1 2.55.3 3.8.6a8.32 8.32 0 0 1 6.8 6.4c1.4 4.2.6 5.2-3.6 5.2h-13a6.48 6.48 0 0 1-4.6-1.6 23.39 23.39 0 0 0-6.8-4 14.53 14.53 0 0 1-6.8-5.2 57.17 57.17 0 0 0-8-9c-5.6-5.8-11.6-11.4-16.8-17.4a22.77 22.77 0 0 1-6.4-15.2c0-1.8-.4-2.6-2.4-1.8-.6.38-1.3.6-2 .6-5.6 0-8.4 3.4-10.4 8.4-1.8 4.2-4.2 8.2-6.4 12.4a20.8 20.8 0 0 0-2 8.4c0 4.8 1.2 6.4 5.6 8 2.8 1 5.4 2 6.8 4.8 1.6 3.2 1.2 4-2.2 4.2h-13.6a3.76 3.76 0 0 1-3.8-2.2l-3.6-6a12.1 12.1 0 0 1-1.4-10.8c.86-3.47.93-7.1.2-10.6a16.84 16.84 0 0 1 3.4-14c1.2-1.4 1.2-2-.8-2.4a100.13 100.13 0 0 1-23.74-8.25.2.2 0 0 1-.06-.15c-6.4-2.4-7.6-2-9.4 4.6-1.6 5.6-3.2 11.2-4.4 17-1.4 6.4.2 12.4 2.2 18.4.8 2.4 3.2 2.2 5 2.8 4 1.2 7.4 2.8 9 7 1.4 3.2 1.2 3.6-2.2 3.6-3.4 0-6.8-.2-10.4 0-3.04.06-6-.93-8.4-2.8-9.6-6.4-12.4-16.2-13.2-26.8-.4-6.6-4-11.8-8.2-16.8-.8-1-1.6-1.4-2.8-.6a88.62 88.62 0 0 1-13.4 6 53.42 53.42 0 0 0-24.4 17.6 21.26 21.26 0 0 0-4.4 10.2c-.6 3.6.4 5.2 4 6.2s5.4 3 5.8 6.8c.2 1.6-.4 2.4-2 2.4h-16.2a3.3 3.3 0 0 1-2.6-1.6c-2.52-3.1-3.86-7-3.8-11-.1-6.9.5-13.8 1.8-20.6a12.6 12.6 0 0 1 6.8-9.6c11.8-5.6 18-16.2 23.6-27.2 1.2-2.2.2-2.6-1.8-2.4-5.6.78-10.9 2.98-15.4 6.4-5.9 4.3-11.45 9.05-16.6 14.2a33.34 33.34 0 0 1-20.6 9.8c-14.6.8-21.4-7.4-20.8-20.6.13-4.5 1.83-8.81 4.8-12.2a8.5 8.5 0 0 1 9-3c3 .8 3.8 2.4 2.6 5.4-.6 1.2-1.4 2.2-2 3.4a15 15 0 0 0-2 4c-2.2 6 .8 10.2 7 10.8 6.6.6 12-2.2 17-6.2a89.88 89.88 0 0 0 16-16.6 41.58 41.58 0 0 1 28.8-16.2c4.6-.6 8.6-2.6 13-3.8a83.01 83.01 0 0 1 25.4-3.6 26 26 0 0 0 11.6-2.2c9.8-4 20-4 30.2-2 8 1.6 16 3.6 23.8 5.6 4.64.87 9.41.73 14-.4a135.6 135.6 0 0 1 26.8-4c5.92-.28 11.83.88 17.2 3.4 4 1.8 4 1.8 3 5.6Z" fill="#000"></path></g><defs><clipPath id="cat-mass-tablet_0"><path fill="#fff" d="M0 0h268v112h-268z"></path></clipPath></defs></svg><svg viewBox="0 0 134 100" fill="none" id="cat-mass"><circle cx="69" cy="50" r="50" fill="#68B738"></circle><g clip-path="url(#cat-mass_0)"><path d="M123.12 25.76a15.2 15.2 0 0 1 4.5-4.6c1-.7 1.6-.7 2.2.6.8 1.9 1.5 3.9.9 6a2.29 2.29 0 0 0 .4 2.1c.6.8 1.1 1.6 1.6 2.3a6.27 6.27 0 0 1 .9 6.2 5.38 5.38 0 0 0-.2 3.1c.2.99.2 2 0 3a3.75 3.75 0 0 1-2.7 3.2 5.21 5.21 0 0 0-3.2 2 1.05 1.05 0 0 1-.9.5c-1.2.2-4.2-2.5-4.2-3.7v-.6c.1-3.6-.1-3.9-3.4-5.4a4.4 4.4 0 0 1-1.8-1.2c-.6-.8-1.4-.7-2.3-.4-.9.3-1.4.9-1.3 1.9.3 2.42.4 4.86.3 7.3 0 .27.07.55.2.8 3.1 4.5 4.3 9.8 5.8 14.9 1.2 3.9 3.4 6 7.4 6.3.64.05 1.27.15 1.9.3a4.16 4.16 0 0 1 3.4 3.2c.7 2.1.3 2.6-1.8 2.6h-6.5a3.24 3.24 0 0 1-2.3-.8 11.71 11.71 0 0 0-3.4-2 7.26 7.26 0 0 1-3.4-2.6 28.58 28.58 0 0 0-4-4.5c-2.8-2.9-5.8-5.7-8.4-8.7a11.38 11.38 0 0 1-3.2-7.6c0-.9-.2-1.3-1.2-.9-.3.19-.65.3-1 .3-2.8 0-4.2 1.7-5.2 4.2-.9 2.1-2.1 4.1-3.2 6.2a10.4 10.4 0 0 0-1 4.2c0 2.4.6 3.2 2.8 4 1.4.5 2.7 1 3.4 2.4.8 1.6.6 2-1.1 2.1h-6.8a1.88 1.88 0 0 1-1.9-1.1l-1.8-3a6.05 6.05 0 0 1-.7-5.4c.43-1.74.47-3.55.1-5.3a8.42 8.42 0 0 1 1.7-7c.6-.7.6-1-.4-1.2a50.07 50.07 0 0 1-11.87-4.13.1.1 0 0 1-.03-.07c-3.2-1.2-3.8-1-4.7 2.3-.8 2.8-1.6 5.6-2.2 8.5-.7 3.2.1 6.2 1.1 9.2.4 1.2 1.6 1.1 2.5 1.4 2 .6 3.7 1.4 4.5 3.5.7 1.6.6 1.8-1.1 1.8-1.7 0-3.4-.1-5.2 0a6.7 6.7 0 0 1-4.2-1.4c-4.8-3.2-6.2-8.1-6.6-13.4-.2-3.3-2-5.9-4.1-8.4-.4-.5-.8-.7-1.4-.3a44.32 44.32 0 0 1-6.7 3 26.71 26.71 0 0 0-12.2 8.8 10.63 10.63 0 0 0-2.2 5.1c-.3 1.8.2 2.6 2 3.1s2.7 1.5 2.9 3.4c.1.8-.2 1.2-1 1.2h-8.1a1.65 1.65 0 0 1-1.3-.8 8.56 8.56 0 0 1-1.9-5.5c-.05-3.46.25-6.91.9-10.3a6.3 6.3 0 0 1 3.4-4.8c5.9-2.8 9-8.1 11.8-13.6.6-1.1.1-1.3-.9-1.2-2.8.39-5.45 1.49-7.7 3.2a70.62 70.62 0 0 0-8.3 7.1 16.67 16.67 0 0 1-10.3 4.9c-7.3.4-10.7-3.7-10.4-10.3a9.67 9.67 0 0 1 2.4-6.1 4.25 4.25 0 0 1 4.5-1.5c1.5.4 1.9 1.2 1.3 2.7-.3.6-.7 1.1-1 1.7a7.5 7.5 0 0 0-1 2c-1.1 3 .4 5.1 3.5 5.4 3.3.3 6-1.1 8.5-3.1 3.01-2.41 5.7-5.2 8-8.3a20.79 20.79 0 0 1 14.4-8.1c2.3-.3 4.3-1.3 6.5-1.9a41.5 41.5 0 0 1 12.7-1.8 13 13 0 0 0 5.8-1.1c4.9-2 10-2 15.1-1 4 .8 8 1.8 11.9 2.8 2.32.43 4.7.36 7-.2a67.79 67.79 0 0 1 13.4-2c2.96-.15 5.91.44 8.6 1.7 2 .9 2 .9 1.5 2.8Z" fill="#000"></path></g><defs><clipPath id="cat-mass_0"><path fill="#fff" transform="translate(0 20)" d="M0 0h134v56h-134z"></path></clipPath></defs></svg><svg viewBox="0 0 70 97" fill="none" id="cat-slim-desktop"><g clip-path="url(#cat-slim-desktop_0)"><path d="M54.84 0h-.38a3.5 3.5 0 0 0-1.46 1.59c-.56 1.08-1 2.23-1.29 3.41a1.63 1.63 0 0 1-1.48 1.34 7.34 7.34 0 0 0-5.23 3.78 27.31 27.31 0 0 0-1.85 4c-1.42 3.68-2.51 7.48-3.85 11.19-.63 1.69-.66 1.69-2.56 1.69-2.27 0-2.11-.35-2.14 2.15 0 .79.24 1.19 1.08 1.15.26 0 .65-.13.75.21.1.34-.24.49-.44.69a9 9 0 0 1-4.33 2.44c-1.9.51-3.84.91-5.69 1.53-4.75 1.59-9.14 3.81-12.56 7.57a28 28 0 0 0-4.74 7.84c-3.67 8.64-5.45 17.74-6.83 26.93-.65 4.31-1.11 8.64-1.46 13-.18 2.14-.38 4.31-.38 6.49h33.33a2.1 2.1 0 0 0-.23-1.28 5 5 0 0 0-3.83-3.07c-.7-.16-.78-.37-.35-.92.7-.94 1.24-1.98 1.59-3.1 1.63-4.81 2.26-9.83 3.05-14.8a30 30 0 0 1 3.44-10.83 21.6 21.6 0 0 1 5.59-6.37c.83-.63.86-.63 1 .44.1.71.12 1.44.17 2.16.3 4.72.24 9.46-.18 14.18a61.67 61.67 0 0 0-.15 11c.4 4.25 1.16 8.47 2.27 12.59h13.3a5.41 5.41 0 0 0-4.24-4.44 9 9 0 0 0-3.76.2c-.6.14-.85 0-.9-.65a56.35 56.35 0 0 1 1-15.82c1.33-6 2.36-12.07 3.06-18.18a17.75 17.75 0 0 1 2.28-7c1.19-2.12 2.23-4.32 3.4-6.45a5.87 5.87 0 0 0 .42-5.19c-.27-.71-.53-1.43-.86-2.11-1-1.95-2-3.88-2.92-5.85-.49-1-.38-1.12.71-1.15 1.63 0 1.63 0 1.66-1.64v-.66c0-.69-.26-1.07-1-1h-1.52c-.69 0-.89-.29-.72-1a6.24 6.24 0 0 1 5.13-4.43 22 22 0 0 1 6.62.43 1 1 0 0 0 1.25-.64c.4-1 .84-2 1.29-3a1 1 0 0 0-.1-1.14c-3.2-4.06-6.67-7.85-11.4-10.28a1.49 1.49 0 0 1-.88-1.12 19.6 19.6 0 0 0-1.27-4.16 3.5 3.5 0 0 0-1.41-1.72Z" fill="#000"></path></g><defs><clipPath id="cat-slim-desktop_0"><path fill="#fff" d="M0 0h70v97h-70z"></path></clipPath></defs></svg><svg viewBox="0 0 36 50" fill="none" id="cat-slim-mobile"><g clip-path="url(#cat-slim-mobile_0)"><path d="M28.2 0h-.2c-.32.19-.59.47-.74.82a8.03 8.03 0 0 0-.67 1.76.84.84 0 0 1-.76.69 3.77 3.77 0 0 0-2.69 1.95c-.37.66-.69 1.35-.95 2.06-.73 1.9-1.29 3.85-1.98 5.77-.32.87-.34.87-1.32.87-1.16 0-1.08-.18-1.1 1.1 0 .41.13.62.56.6.13 0 .33-.07.39.1.05.18-.13.26-.23.36a4.63 4.63 0 0 1-2.23 1.26c-.97.26-1.97.47-2.92.79-2.45.82-4.7 1.96-6.46 3.9a14.44 14.44 0 0 0-2.44 4.04c-1.89 4.46-2.8 9.15-3.51 13.88a97.06 97.06 0 0 0-.75 6.7c-.1 1.1-.2 2.23-.2 3.35h17.14c.03-.23-.01-.46-.12-.66a2.58 2.58 0 0 0-1.97-1.58c-.36-.08-.4-.2-.18-.48.36-.48.64-1.02.82-1.6.84-2.47 1.16-5.06 1.57-7.62.23-1.96.83-3.85 1.77-5.59a11.13 11.13 0 0 1 2.87-3.28c.43-.32.45-.32.52.23.05.36.06.74.09 1.11a48.2 48.2 0 0 1-.1 7.31c-.2 1.88-.22 3.78-.07 5.67.2 2.2.59 4.36 1.16 6.49h6.84a2.8 2.8 0 0 0-2.18-2.29c-.64-.1-1.3-.07-1.93.1-.31.08-.44 0-.46-.33-.22-2.73-.04-5.47.51-8.16a91.8 91.8 0 0 0 1.57-9.37c.14-1.27.54-2.5 1.18-3.6.6-1.1 1.14-2.23 1.74-3.33a3.03 3.03 0 0 0 .22-2.67c-.14-.37-.27-.74-.44-1.1-.52-1-1.03-2-1.5-3-.26-.52-.2-.59.36-.6.84 0 .84 0 .86-.85v-.34c0-.35-.14-.55-.52-.51h-.78c-.36 0-.46-.15-.37-.52a3.22 3.22 0 0 1 2.64-2.28 11.3 11.3 0 0 1 3.4.22.51.51 0 0 0 .65-.33 40 40 0 0 1 .66-1.55.52.52 0 0 0-.05-.58c-1.65-2.1-3.43-4.05-5.87-5.3a.77.77 0 0 1-.45-.58 9.8 9.8 0 0 0-.65-2.14 1.8 1.8 0 0 0-.73-.89Z" fill="#000"></path></g><defs><clipPath id="cat-slim-mobile_0"><path fill="#fff" d="M0 0h36v50h-36z"></path></clipPath></defs></svg><svg viewBox="0 0 140 194" fill="none" id="cat-slim-tablet"><path d="M109.68 0h-.76a7 7 0 0 0-2.92 3.18c-1.13 2.16-2 4.45-2.58 6.82a3.26 3.26 0 0 1-2.96 2.68 14.68 14.68 0 0 0-10.46 7.56 54.62 54.62 0 0 0-3.7 8c-2.84 7.36-5.02 14.96-7.7 22.38-1.26 3.38-1.32 3.38-5.12 3.38-4.54 0-4.22-.7-4.28 4.3 0 1.58.48 2.38 2.16 2.3.52 0 1.3-.26 1.5.42.2.68-.48.98-.88 1.38a18 18 0 0 1-8.66 4.88c-3.8 1.02-7.68 1.82-11.38 3.06-9.5 3.18-18.28 7.62-25.12 15.14a56 56 0 0 0-9.48 15.68c-7.34 17.28-10.9 35.48-13.66 53.86a375.77 375.77 0 0 0-2.92 26c-.36 4.28-.76 8.62-.76 12.98h66.66a4.36 4.36 0 0 0-.46-2.56 10 10 0 0 0-7.66-6.14c-1.4-.32-1.56-.74-.7-1.84a20.7 20.7 0 0 0 3.18-6.2c3.26-9.62 4.52-19.66 6.1-29.6a60 60 0 0 1 6.88-21.66 43.2 43.2 0 0 1 11.18-12.74c1.66-1.26 1.72-1.26 2 .88.2 1.42.24 2.88.34 4.32.6 9.45.48 18.93-.36 28.36-.76 7.31-.86 14.67-.3 22 .8 8.5 2.31 16.93 4.54 25.18h26.6a10.82 10.82 0 0 0-8.48-8.88 18 18 0 0 0-7.52.4c-1.2.28-1.7 0-1.8-1.3a112.7 112.7 0 0 1 2-31.64c2.67-12 4.71-24.14 6.12-36.36a35.5 35.5 0 0 1 4.56-14c2.38-4.24 4.46-8.64 6.8-12.9a11.75 11.75 0 0 0 .84-10.38c-.54-1.42-1.06-2.86-1.72-4.22-2-3.9-4-7.76-5.84-11.7-.98-2-.76-2.24 1.42-2.3 3.26 0 3.26 0 3.32-3.28v-1.32c0-1.38-.52-2.14-2-2h-3.04c-1.38 0-1.78-.58-1.44-2a12.48 12.48 0 0 1 10.26-8.86 44 44 0 0 1 13.24.86 2 2 0 0 0 2.5-1.28c.8-2 1.68-4 2.58-6a2 2 0 0 0-.2-2.28c-6.4-8.12-13.34-15.7-22.8-20.56a2.98 2.98 0 0 1-1.76-2.24 39.16 39.16 0 0 0-2.54-8.32 7 7 0 0 0-2.82-3.44Z" fill="#000"></path></svg><svg viewBox="0 0 100 106" fill="none" id="cat-slim"><circle cx="50" cy="56" r="50" fill="#68B738"></circle><g clip-path="url(#cat-slim_0)"><path d="M69.84 0h-.38a3.5 3.5 0 0 0-1.46 1.59c-.56 1.08-1 2.23-1.29 3.41a1.63 1.63 0 0 1-1.48 1.34 7.34 7.34 0 0 0-5.23 3.78 27.31 27.31 0 0 0-1.85 4c-1.42 3.68-2.51 7.48-3.85 11.19-.63 1.69-.66 1.69-2.56 1.69-2.27 0-2.11-.35-2.14 2.15 0 .79.24 1.19 1.08 1.15.26 0 .65-.13.75.21.1.34-.24.49-.44.69a9 9 0 0 1-4.33 2.44c-1.9.51-3.84.91-5.69 1.53-4.75 1.59-9.14 3.81-12.56 7.57a28 28 0 0 0-4.74 7.84c-3.67 8.64-5.45 17.74-6.83 26.93-.65 4.31-1.11 8.64-1.46 13-.18 2.14-.38 4.31-.38 6.49h33.33a2.1 2.1 0 0 0-.23-1.28 5 5 0 0 0-3.83-3.07c-.7-.16-.78-.37-.35-.92.7-.94 1.24-1.98 1.59-3.1 1.63-4.81 2.26-9.83 3.05-14.8a30 30 0 0 1 3.44-10.83 21.6 21.6 0 0 1 5.59-6.37c.83-.63.86-.63 1 .44.1.71.12 1.44.17 2.16.3 4.72.24 9.46-.18 14.18a61.67 61.67 0 0 0-.15 11c.4 4.25 1.16 8.47 2.27 12.59h13.3a5.41 5.41 0 0 0-4.24-4.44 9 9 0 0 0-3.76.2c-.6.14-.85 0-.9-.65a56.35 56.35 0 0 1 1-15.82c1.33-6 2.36-12.07 3.06-18.18a17.75 17.75 0 0 1 2.28-7c1.19-2.12 2.23-4.32 3.4-6.45a5.87 5.87 0 0 0 .42-5.19c-.27-.71-.53-1.43-.86-2.11-1-1.95-2-3.88-2.92-5.85-.49-1-.38-1.12.71-1.15 1.63 0 1.63 0 1.66-1.64v-.66c0-.69-.26-1.07-1-1h-1.52c-.69 0-.89-.29-.72-1a6.24 6.24 0 0 1 5.13-4.43 22 22 0 0 1 6.62.43 1 1 0 0 0 1.25-.64c.4-1 .84-2 1.29-3a1 1 0 0 0-.1-1.14c-3.2-4.06-6.67-7.85-11.4-10.28a1.49 1.49 0 0 1-.88-1.12 19.6 19.6 0 0 0-1.27-4.16 3.5 3.5 0 0 0-1.41-1.72Z" fill="#000"></path></g><defs><clipPath id="cat-slim_0"><path fill="#fff" transform="translate(15)" d="M0 0h70v97h-70z"></path></clipPath></defs></svg><svg viewBox="0 0 40 258" fill="none" id="curtain-default"><rect x="18" width="4" height="257.02" rx="2" fill="#666666"></rect><rect x="1" y="110" width="38" height="38" rx="19" fill="white"></rect><rect x="1" y="110" width="38" height="38" rx="19" stroke="#666666" stroke-width="2"></rect><path d="M16 120L8 129L16 138V120Z" fill="#666666"></path><path d="M32 129L24 120V138L32 129Z" fill="#666666"></path></svg><svg viewBox="0 0 40 258" fill="none" id="curtain-hover"><rect x="18" width="4" height="257.02" rx="2" fill="#68B738"></rect><rect x="1" y="110" width="38" height="38" rx="19" fill="white"></rect><rect x="1" y="110" width="38" height="38" rx="19" stroke="#68B738" stroke-width="2"></rect><path d="M16 120L8 129L16 138V120Z" fill="#68B738"></path><path d="M32 129L24 120V138L32 129Z" fill="#68B738"></path></svg><svg viewBox="0 0 40 258" fill="none" id="curtain"><rect x="18" width="4" height="257.02" rx="2" fill="#666"></rect><rect x="1" y="110" width="38" height="38" rx="19" fill="#fff"></rect><rect x="1" y="110" width="38" height="38" rx="19" stroke="#666" stroke-width="2"></rect><path d="m16 120-8 9 8 9v-18Zm16 9-8-9v18l8-9Z" fill="#666"></path></svg><svg viewBox="0 0 27 34" fill="none" id="footer-logo-pic-hover"><g clip-path="url(#footer-logo-pic-hover_0)"><path d="M13.6426 0.0157537L13.5 0L0 1.40733V26.0129L13.5 34L27 26.0129V1.40733L13.6426 0.0157537ZM25.2344 25.0151L13.5 31.9573L1.76561 25.0151V14.9293L13.4507 21.8451L13.4701 23.0984L5.45351 18.3548L5.44295 19.5801L13.4894 24.3885L13.5088 25.675L5.46408 20.9174L5.45351 22.1427L13.5 26.9511L21.6239 22.1182V20.8929V16.909L25.2432 14.7595L25.2344 25.0151ZM25.2344 13.4519L22.0147 15.3319L20.5325 16.2071L13.4666 12.0201L13.456 13.2454L19.4957 16.818L19.4429 16.8495L19.3126 16.9247L18.4536 17.4166L13.4666 14.4689L13.456 15.6942L17.3921 18.0222L16.4591 18.6314L16.438 18.6436L13.4666 16.902L13.456 18.1273L15.4029 19.2615L13.4155 20.4483L1.7973 13.5762L13.4349 6.61831L25.2344 13.4519ZM25.2344 12.2266L13.4401 5.31075L1.76561 12.2196V2.9897L13.5 1.76442L25.2344 2.9897V12.2266Z" fill="#68B738"></path></g><defs><clipPath id="footer-logo-pic-hover_0"><rect width="27" height="34" fill="white"></rect></clipPath></defs></svg><svg viewBox="0 0 27 35" fill="none" id="footer-logo-pic"><path d="M13.6426 0.515754L13.5 0.5L0 1.90733V26.5129L13.5 34.5L27 26.5129V1.90733L13.6426 0.515754ZM25.2344 25.5151L13.5 32.4573L1.76561 25.5151V15.4293L13.4507 22.3451L13.4701 23.5984L5.45351 18.8548L5.44295 20.0801L13.4894 24.8885L13.5088 26.175L5.46408 21.4174L5.45351 22.6427L13.5 27.4511L21.6239 22.6182V21.3929V17.409L25.2432 15.2595L25.2344 25.5151ZM25.2344 13.9519L22.0147 15.8319L20.5325 16.7071L13.4666 12.5201L13.456 13.7454L19.4957 17.318L19.4429 17.3495L19.3126 17.4247L18.4536 17.9166L13.4666 14.9689L13.456 16.1942L17.3921 18.5222L16.4591 19.1314L16.438 19.1436L13.4666 17.402L13.456 18.6273L15.4029 19.7615L13.4155 20.9483L1.7973 14.0762L13.4349 7.11831L25.2344 13.9519ZM25.2344 12.7266L13.4401 5.81075L1.76561 12.7196V3.4897L13.5 2.26442L25.2344 3.4897V12.7266Z" fill="#666666"></path></svg><svg viewBox="0 0 112 16" fill="none" id="footer-logo-text"><path d="M9.752 1.036V12.5H8.2V7.284H2.016V12.5H0.464V1.036H2.016V6.148H8.2V1.036H9.752ZM20.4348 2.34H16.7228V12.5H15.1788V2.34H11.4588V1.036H20.4348V2.34ZM34.0639 1.036V12.5H32.7039V4.076C32.7039 3.964 32.7065 3.844 32.7119 3.716C32.7225 3.588 32.7332 3.45733 32.7439 3.324L28.8079 10.492C28.6852 10.732 28.4985 10.852 28.2479 10.852H28.0239C27.7732 10.852 27.5865 10.732 27.4639 10.492L23.4479 3.292C23.4799 3.57467 23.4959 3.836 23.4959 4.076V12.5H22.1359V1.036H23.2799C23.4185 1.036 23.5252 1.04933 23.5999 1.076C23.6745 1.10267 23.7465 1.17733 23.8159 1.3L27.7759 8.356C27.8399 8.484 27.9012 8.61733 27.9599 8.756C28.0239 8.89467 28.0825 9.036 28.1359 9.18C28.1892 9.036 28.2452 8.89467 28.3039 8.756C28.3625 8.612 28.4265 8.476 28.4959 8.348L32.3839 1.3C32.4479 1.17733 32.5172 1.10267 32.5919 1.076C32.6719 1.04933 32.7812 1.036 32.9199 1.036H34.0639ZM43.4993 11.196V12.5H36.9953V1.036H38.5393V11.196H43.4993ZM54.3801 8.244L52.5801 3.58C52.5268 3.44133 52.4708 3.28133 52.4121 3.1C52.3535 2.91333 52.2975 2.716 52.2441 2.508C52.1321 2.94 52.0175 3.3 51.9001 3.588L50.1001 8.244H54.3801ZM57.6121 12.5H56.4121C56.2735 12.5 56.1615 12.4653 56.0761 12.396C55.9908 12.3267 55.9268 12.2387 55.8841 12.132L54.8121 9.364H49.6681L48.5961 12.132C48.5641 12.228 48.5028 12.3133 48.4121 12.388C48.3215 12.4627 48.2095 12.5 48.0761 12.5H46.8761L51.4601 1.036H53.0281L57.6121 12.5ZM64.2055 5.836C64.1628 5.89467 64.1202 5.94 64.0775 5.972C64.0348 6.004 63.9762 6.02 63.9015 6.02C63.8215 6.02 63.7335 5.988 63.6375 5.924C63.5415 5.85467 63.4215 5.78 63.2775 5.7C63.1388 5.62 62.9655 5.548 62.7575 5.484C62.5548 5.41467 62.3042 5.38 62.0055 5.38C61.6055 5.38 61.2535 5.452 60.9495 5.596C60.6455 5.73467 60.3895 5.93733 60.1815 6.204C59.9788 6.47067 59.8242 6.79333 59.7175 7.172C59.6162 7.55067 59.5655 7.97467 59.5655 8.444C59.5655 8.93467 59.6215 9.372 59.7335 9.756C59.8455 10.1347 60.0028 10.4547 60.2055 10.716C60.4135 10.972 60.6615 11.1693 60.9495 11.308C61.2428 11.4413 61.5708 11.508 61.9335 11.508C62.2802 11.508 62.5655 11.468 62.7895 11.388C63.0135 11.3027 63.1975 11.2093 63.3415 11.108C63.4908 11.0067 63.6135 10.916 63.7095 10.836C63.8108 10.7507 63.9095 10.708 64.0055 10.708C64.1228 10.708 64.2135 10.7533 64.2775 10.844L64.6775 11.364C64.5015 11.5827 64.3015 11.7693 64.0775 11.924C63.8535 12.0787 63.6108 12.2093 63.3495 12.316C63.0935 12.4173 62.8242 12.492 62.5415 12.54C62.2588 12.588 61.9708 12.612 61.6775 12.612C61.1708 12.612 60.6988 12.5187 60.2615 12.332C59.8295 12.1453 59.4535 11.876 59.1335 11.524C58.8135 11.1667 58.5628 10.7293 58.3815 10.212C58.2002 9.69467 58.1095 9.10533 58.1095 8.444C58.1095 7.84133 58.1922 7.284 58.3575 6.772C58.5282 6.26 58.7735 5.82 59.0935 5.452C59.4188 5.07867 59.8162 4.788 60.2855 4.58C60.7602 4.372 61.3042 4.268 61.9175 4.268C62.4882 4.268 62.9895 4.36133 63.4215 4.548C63.8588 4.72933 64.2455 4.988 64.5815 5.324L64.2055 5.836ZM70.5981 8.852C69.9421 8.87333 69.3821 8.92667 68.9181 9.012C68.4595 9.092 68.0835 9.19867 67.7901 9.332C67.5021 9.46533 67.2915 9.62267 67.1581 9.804C67.0301 9.98533 66.9661 10.188 66.9661 10.412C66.9661 10.6253 67.0008 10.8093 67.0701 10.964C67.1395 11.1187 67.2328 11.2467 67.3501 11.348C67.4728 11.444 67.6141 11.516 67.7741 11.564C67.9395 11.6067 68.1155 11.628 68.3021 11.628C68.5528 11.628 68.7821 11.604 68.9901 11.556C69.1981 11.5027 69.3928 11.428 69.5741 11.332C69.7608 11.236 69.9368 11.1213 70.1021 10.988C70.2728 10.8547 70.4381 10.7027 70.5981 10.532V8.852ZM65.9981 5.54C66.4461 5.108 66.9288 4.78533 67.4461 4.572C67.9635 4.35867 68.5368 4.252 69.1661 4.252C69.6195 4.252 70.0221 4.32667 70.3741 4.476C70.7261 4.62533 71.0221 4.83333 71.2621 5.1C71.5021 5.36667 71.6835 5.68933 71.8061 6.068C71.9288 6.44667 71.9901 6.86267 71.9901 7.316V12.5H71.3581C71.2195 12.5 71.1128 12.4787 71.0381 12.436C70.9635 12.388 70.9048 12.2973 70.8621 12.164L70.7021 11.396C70.4888 11.5933 70.2808 11.7693 70.0781 11.924C69.8755 12.0733 69.6621 12.2013 69.4381 12.308C69.2141 12.4093 68.9741 12.4867 68.7181 12.54C68.4675 12.5987 68.1875 12.628 67.8781 12.628C67.5635 12.628 67.2675 12.5853 66.9901 12.5C66.7128 12.4093 66.4701 12.276 66.2621 12.1C66.0595 11.924 65.8968 11.7027 65.7741 11.436C65.6568 11.164 65.5981 10.844 65.5981 10.476C65.5981 10.156 65.6861 9.84933 65.8621 9.556C66.0381 9.25733 66.3235 8.99333 66.7181 8.764C67.1128 8.53467 67.6275 8.348 68.2621 8.204C68.8968 8.05467 69.6755 7.96933 70.5981 7.948V7.316C70.5981 6.68667 70.4621 6.212 70.1901 5.892C69.9181 5.56667 69.5208 5.404 68.9981 5.404C68.6461 5.404 68.3501 5.44933 68.1101 5.54C67.8755 5.62533 67.6701 5.724 67.4941 5.836C67.3235 5.94267 67.1741 6.04133 67.0461 6.132C66.9235 6.21733 66.8008 6.26 66.6781 6.26C66.5821 6.26 66.4995 6.236 66.4301 6.188C66.3608 6.13467 66.3021 6.07067 66.2541 5.996L65.9981 5.54ZM79.4393 6.324C79.1726 5.96667 78.8846 5.71867 78.5753 5.58C78.2659 5.436 77.9193 5.364 77.5353 5.364C76.7833 5.364 76.2046 5.63333 75.7993 6.172C75.3939 6.71067 75.1913 7.47867 75.1913 8.476C75.1913 9.004 75.2366 9.45733 75.3273 9.836C75.4179 10.2093 75.5513 10.5187 75.7273 10.764C75.9033 11.004 76.1193 11.18 76.3753 11.292C76.6313 11.404 76.9219 11.46 77.2473 11.46C77.7166 11.46 78.1246 11.3533 78.4713 11.14C78.8233 10.9267 79.1459 10.6253 79.4393 10.236V6.324ZM80.8633 0.716V12.5H80.0153C79.8126 12.5 79.6846 12.4013 79.6313 12.204L79.5033 11.22C79.1566 11.636 78.7619 11.972 78.3193 12.228C77.8766 12.484 77.3646 12.612 76.7833 12.612C76.3193 12.612 75.8979 12.524 75.5193 12.348C75.1406 12.1667 74.8179 11.9027 74.5513 11.556C74.2846 11.2093 74.0793 10.7773 73.9353 10.26C73.7913 9.74267 73.7193 9.148 73.7193 8.476C73.7193 7.87867 73.7993 7.324 73.9593 6.812C74.1193 6.29467 74.3486 5.84667 74.6473 5.468C74.9459 5.08933 75.3113 4.79333 75.7433 4.58C76.1806 4.36133 76.6713 4.252 77.2153 4.252C77.7113 4.252 78.1353 4.33733 78.4873 4.508C78.8446 4.67333 79.1619 4.90533 79.4393 5.204V0.716H80.8633ZM88.5364 7.564C88.5364 7.23333 88.4884 6.932 88.3924 6.66C88.3017 6.38267 88.1657 6.14533 87.9844 5.948C87.8084 5.74533 87.5924 5.59067 87.3364 5.484C87.0804 5.372 86.7897 5.316 86.4644 5.316C85.7817 5.316 85.2404 5.516 84.8404 5.916C84.4457 6.31067 84.2004 6.86 84.1044 7.564H88.5364ZM89.6884 11.364C89.5124 11.5773 89.3017 11.764 89.0564 11.924C88.811 12.0787 88.547 12.2067 88.2644 12.308C87.987 12.4093 87.699 12.484 87.4004 12.532C87.1017 12.5853 86.8057 12.612 86.5124 12.612C85.9524 12.612 85.435 12.5187 84.9604 12.332C84.491 12.14 84.083 11.8627 83.7364 11.5C83.395 11.132 83.1284 10.6787 82.9364 10.14C82.7444 9.60133 82.6484 8.98267 82.6484 8.284C82.6484 7.71867 82.7337 7.19067 82.9044 6.7C83.0804 6.20933 83.331 5.78533 83.6564 5.428C83.9817 5.06533 84.379 4.78267 84.8484 4.58C85.3177 4.372 85.8457 4.268 86.4324 4.268C86.9177 4.268 87.3657 4.35067 87.7764 4.516C88.1924 4.676 88.5497 4.91067 88.8484 5.22C89.1524 5.524 89.3897 5.90267 89.5604 6.356C89.731 6.804 89.8164 7.316 89.8164 7.892C89.8164 8.116 89.7924 8.26533 89.7444 8.34C89.6964 8.41467 89.6057 8.452 89.4724 8.452H84.0564C84.0724 8.964 84.1417 9.40933 84.2644 9.788C84.3924 10.1667 84.5684 10.484 84.7924 10.74C85.0164 10.9907 85.283 11.18 85.5924 11.308C85.9017 11.4307 86.2484 11.492 86.6324 11.492C86.9897 11.492 87.2964 11.452 87.5524 11.372C87.8137 11.2867 88.0377 11.196 88.2244 11.1C88.411 11.004 88.5657 10.916 88.6884 10.836C88.8164 10.7507 88.9257 10.708 89.0164 10.708C89.1337 10.708 89.2244 10.7533 89.2884 10.844L89.6884 11.364ZM91.5655 12.5V4.396H92.4215C92.6242 4.396 92.7495 4.49467 92.7975 4.692L92.9015 5.524C93.2002 5.156 93.5362 4.85467 93.9095 4.62C94.2828 4.38533 94.7148 4.268 95.2055 4.268C95.7495 4.268 96.1895 4.42 96.5255 4.724C96.8668 5.028 97.1122 5.43867 97.2615 5.956C97.3788 5.66267 97.5282 5.40933 97.7095 5.196C97.8962 4.98267 98.1042 4.80667 98.3335 4.668C98.5628 4.52933 98.8055 4.428 99.0615 4.364C99.3228 4.3 99.5868 4.268 99.8535 4.268C100.28 4.268 100.659 4.33733 100.99 4.476C101.326 4.60933 101.608 4.80667 101.838 5.068C102.072 5.32933 102.251 5.652 102.374 6.036C102.496 6.41467 102.558 6.84933 102.558 7.34V12.5H101.126V7.34C101.126 6.70533 100.987 6.22533 100.71 5.9C100.432 5.56933 100.032 5.404 99.5095 5.404C99.2748 5.404 99.0508 5.44667 98.8375 5.532C98.6295 5.612 98.4455 5.732 98.2855 5.892C98.1255 6.052 97.9975 6.25467 97.9015 6.5C97.8108 6.74 97.7655 7.02 97.7655 7.34V12.5H96.3335V7.34C96.3335 6.68933 96.2028 6.204 95.9415 5.884C95.6802 5.564 95.2988 5.404 94.7975 5.404C94.4455 5.404 94.1202 5.5 93.8215 5.692C93.5228 5.87867 93.2482 6.13467 92.9975 6.46V12.5H91.5655ZM111.511 4.396L106.991 14.892C106.943 14.9987 106.881 15.084 106.807 15.148C106.737 15.212 106.628 15.244 106.479 15.244H105.423L106.903 12.028L103.559 4.396H104.791C104.913 4.396 105.009 4.428 105.079 4.492C105.153 4.55067 105.204 4.61733 105.231 4.692L107.399 9.796C107.484 10.02 107.556 10.2547 107.615 10.5C107.689 10.2493 107.769 10.012 107.855 9.788L109.959 4.692C109.991 4.60667 110.044 4.53733 110.119 4.484C110.199 4.42533 110.287 4.396 110.383 4.396H111.511Z" fill="#444444"></path></svg><svg viewBox="0 0 168 37" fill="none" id="html-logo-footer"><path d="M15.752 13.036V24.5H14.2V19.284H8.016V24.5H6.464V13.036H8.016V18.148H14.2V13.036H15.752ZM26.4348 14.34H22.7228V24.5H21.1788V14.34H17.4588V13.036H26.4348V14.34ZM40.0639 13.036V24.5H38.7039V16.076C38.7039 15.964 38.7065 15.844 38.7119 15.716C38.7225 15.588 38.7332 15.4573 38.7439 15.324L34.8079 22.492C34.6852 22.732 34.4985 22.852 34.2479 22.852H34.0239C33.7732 22.852 33.5865 22.732 33.4639 22.492L29.4479 15.292C29.4799 15.5747 29.4959 15.836 29.4959 16.076V24.5H28.1359V13.036H29.2799C29.4185 13.036 29.5252 13.0493 29.5999 13.076C29.6745 13.1027 29.7465 13.1773 29.8159 13.3L33.7759 20.356C33.8399 20.484 33.9012 20.6173 33.9599 20.756C34.0239 20.8947 34.0825 21.036 34.1359 21.18C34.1892 21.036 34.2452 20.8947 34.3039 20.756C34.3625 20.612 34.4265 20.476 34.4959 20.348L38.3839 13.3C38.4479 13.1773 38.5172 13.1027 38.5919 13.076C38.6719 13.0493 38.7812 13.036 38.9199 13.036H40.0639ZM49.4993 23.196V24.5H42.9953V13.036H44.5393V23.196H49.4993ZM60.3801 20.244L58.5801 15.58C58.5268 15.4413 58.4708 15.2813 58.4121 15.1C58.3535 14.9133 58.2975 14.716 58.2441 14.508C58.1321 14.94 58.0175 15.3 57.9001 15.588L56.1001 20.244H60.3801ZM63.6121 24.5H62.4121C62.2735 24.5 62.1615 24.4653 62.0761 24.396C61.9908 24.3267 61.9268 24.2387 61.8841 24.132L60.8121 21.364H55.6681L54.5961 24.132C54.5641 24.228 54.5028 24.3133 54.4121 24.388C54.3215 24.4627 54.2095 24.5 54.0761 24.5H52.8761L57.4601 13.036H59.0281L63.6121 24.5ZM70.2055 17.836C70.1628 17.8947 70.1202 17.94 70.0775 17.972C70.0348 18.004 69.9762 18.02 69.9015 18.02C69.8215 18.02 69.7335 17.988 69.6375 17.924C69.5415 17.8547 69.4215 17.78 69.2775 17.7C69.1388 17.62 68.9655 17.548 68.7575 17.484C68.5548 17.4147 68.3042 17.38 68.0055 17.38C67.6055 17.38 67.2535 17.452 66.9495 17.596C66.6455 17.7347 66.3895 17.9373 66.1815 18.204C65.9788 18.4707 65.8242 18.7933 65.7175 19.172C65.6162 19.5507 65.5655 19.9747 65.5655 20.444C65.5655 20.9347 65.6215 21.372 65.7335 21.756C65.8455 22.1347 66.0028 22.4547 66.2055 22.716C66.4135 22.972 66.6615 23.1693 66.9495 23.308C67.2428 23.4413 67.5708 23.508 67.9335 23.508C68.2802 23.508 68.5655 23.468 68.7895 23.388C69.0135 23.3027 69.1975 23.2093 69.3415 23.108C69.4908 23.0067 69.6135 22.916 69.7095 22.836C69.8108 22.7507 69.9095 22.708 70.0055 22.708C70.1228 22.708 70.2135 22.7533 70.2775 22.844L70.6775 23.364C70.5015 23.5827 70.3015 23.7693 70.0775 23.924C69.8535 24.0787 69.6108 24.2093 69.3495 24.316C69.0935 24.4173 68.8242 24.492 68.5415 24.54C68.2588 24.588 67.9708 24.612 67.6775 24.612C67.1708 24.612 66.6988 24.5187 66.2615 24.332C65.8295 24.1453 65.4535 23.876 65.1335 23.524C64.8135 23.1667 64.5628 22.7293 64.3815 22.212C64.2002 21.6947 64.1095 21.1053 64.1095 20.444C64.1095 19.8413 64.1922 19.284 64.3575 18.772C64.5282 18.26 64.7735 17.82 65.0935 17.452C65.4188 17.0787 65.8162 16.788 66.2855 16.58C66.7602 16.372 67.3042 16.268 67.9175 16.268C68.4882 16.268 68.9895 16.3613 69.4215 16.548C69.8588 16.7293 70.2455 16.988 70.5815 17.324L70.2055 17.836ZM76.5981 20.852C75.9421 20.8733 75.3821 20.9267 74.9181 21.012C74.4595 21.092 74.0835 21.1987 73.7901 21.332C73.5021 21.4653 73.2915 21.6227 73.1581 21.804C73.0301 21.9853 72.9661 22.188 72.9661 22.412C72.9661 22.6253 73.0008 22.8093 73.0701 22.964C73.1395 23.1187 73.2328 23.2467 73.3501 23.348C73.4728 23.444 73.6141 23.516 73.7741 23.564C73.9395 23.6067 74.1155 23.628 74.3021 23.628C74.5528 23.628 74.7821 23.604 74.9901 23.556C75.1981 23.5027 75.3928 23.428 75.5741 23.332C75.7608 23.236 75.9368 23.1213 76.1021 22.988C76.2728 22.8547 76.4381 22.7027 76.5981 22.532V20.852ZM71.9981 17.54C72.4461 17.108 72.9288 16.7853 73.4461 16.572C73.9635 16.3587 74.5368 16.252 75.1661 16.252C75.6195 16.252 76.0221 16.3267 76.3741 16.476C76.7261 16.6253 77.0221 16.8333 77.2621 17.1C77.5021 17.3667 77.6835 17.6893 77.8061 18.068C77.9288 18.4467 77.9901 18.8627 77.9901 19.316V24.5H77.3581C77.2195 24.5 77.1128 24.4787 77.0381 24.436C76.9635 24.388 76.9048 24.2973 76.8621 24.164L76.7021 23.396C76.4888 23.5933 76.2808 23.7693 76.0781 23.924C75.8755 24.0733 75.6621 24.2013 75.4381 24.308C75.2141 24.4093 74.9741 24.4867 74.7181 24.54C74.4675 24.5987 74.1875 24.628 73.8781 24.628C73.5635 24.628 73.2675 24.5853 72.9901 24.5C72.7128 24.4093 72.4701 24.276 72.2621 24.1C72.0595 23.924 71.8968 23.7027 71.7741 23.436C71.6568 23.164 71.5981 22.844 71.5981 22.476C71.5981 22.156 71.6861 21.8493 71.8621 21.556C72.0381 21.2573 72.3235 20.9933 72.7181 20.764C73.1128 20.5347 73.6275 20.348 74.2621 20.204C74.8968 20.0547 75.6755 19.9693 76.5981 19.948V19.316C76.5981 18.6867 76.4621 18.212 76.1901 17.892C75.9181 17.5667 75.5208 17.404 74.9981 17.404C74.6461 17.404 74.3501 17.4493 74.1101 17.54C73.8755 17.6253 73.6701 17.724 73.4941 17.836C73.3235 17.9427 73.1741 18.0413 73.0461 18.132C72.9235 18.2173 72.8008 18.26 72.6781 18.26C72.5821 18.26 72.4995 18.236 72.4301 18.188C72.3608 18.1347 72.3021 18.0707 72.2541 17.996L71.9981 17.54ZM85.4393 18.324C85.1726 17.9667 84.8846 17.7187 84.5753 17.58C84.2659 17.436 83.9193 17.364 83.5353 17.364C82.7833 17.364 82.2046 17.6333 81.7993 18.172C81.3939 18.7107 81.1913 19.4787 81.1913 20.476C81.1913 21.004 81.2366 21.4573 81.3273 21.836C81.4179 22.2093 81.5513 22.5187 81.7273 22.764C81.9033 23.004 82.1193 23.18 82.3753 23.292C82.6313 23.404 82.9219 23.46 83.2473 23.46C83.7166 23.46 84.1246 23.3533 84.4713 23.14C84.8233 22.9267 85.1459 22.6253 85.4393 22.236V18.324ZM86.8633 12.716V24.5H86.0153C85.8126 24.5 85.6846 24.4013 85.6313 24.204L85.5033 23.22C85.1566 23.636 84.7619 23.972 84.3193 24.228C83.8766 24.484 83.3646 24.612 82.7833 24.612C82.3193 24.612 81.8979 24.524 81.5193 24.348C81.1406 24.1667 80.8179 23.9027 80.5513 23.556C80.2846 23.2093 80.0793 22.7773 79.9353 22.26C79.7913 21.7427 79.7193 21.148 79.7193 20.476C79.7193 19.8787 79.7993 19.324 79.9593 18.812C80.1193 18.2947 80.3486 17.8467 80.6473 17.468C80.9459 17.0893 81.3113 16.7933 81.7433 16.58C82.1806 16.3613 82.6713 16.252 83.2153 16.252C83.7113 16.252 84.1353 16.3373 84.4873 16.508C84.8446 16.6733 85.1619 16.9053 85.4393 17.204V12.716H86.8633ZM94.5364 19.564C94.5364 19.2333 94.4884 18.932 94.3924 18.66C94.3017 18.3827 94.1657 18.1453 93.9844 17.948C93.8084 17.7453 93.5924 17.5907 93.3364 17.484C93.0804 17.372 92.7897 17.316 92.4644 17.316C91.7817 17.316 91.2404 17.516 90.8404 17.916C90.4457 18.3107 90.2004 18.86 90.1044 19.564H94.5364ZM95.6884 23.364C95.5124 23.5773 95.3017 23.764 95.0564 23.924C94.811 24.0787 94.547 24.2067 94.2644 24.308C93.987 24.4093 93.699 24.484 93.4004 24.532C93.1017 24.5853 92.8057 24.612 92.5124 24.612C91.9524 24.612 91.435 24.5187 90.9604 24.332C90.491 24.14 90.083 23.8627 89.7364 23.5C89.395 23.132 89.1284 22.6787 88.9364 22.14C88.7444 21.6013 88.6484 20.9827 88.6484 20.284C88.6484 19.7187 88.7337 19.1907 88.9044 18.7C89.0804 18.2093 89.331 17.7853 89.6564 17.428C89.9817 17.0653 90.379 16.7827 90.8484 16.58C91.3177 16.372 91.8457 16.268 92.4324 16.268C92.9177 16.268 93.3657 16.3507 93.7764 16.516C94.1924 16.676 94.5497 16.9107 94.8484 17.22C95.1524 17.524 95.3897 17.9027 95.5604 18.356C95.731 18.804 95.8164 19.316 95.8164 19.892C95.8164 20.116 95.7924 20.2653 95.7444 20.34C95.6964 20.4147 95.6057 20.452 95.4724 20.452H90.0564C90.0724 20.964 90.1417 21.4093 90.2644 21.788C90.3924 22.1667 90.5684 22.484 90.7924 22.74C91.0164 22.9907 91.283 23.18 91.5924 23.308C91.9017 23.4307 92.2484 23.492 92.6324 23.492C92.9897 23.492 93.2964 23.452 93.5524 23.372C93.8137 23.2867 94.0377 23.196 94.2244 23.1C94.411 23.004 94.5657 22.916 94.6884 22.836C94.8164 22.7507 94.9257 22.708 95.0164 22.708C95.1337 22.708 95.2244 22.7533 95.2884 22.844L95.6884 23.364ZM97.5655 24.5V16.396H98.4215C98.6242 16.396 98.7495 16.4947 98.7975 16.692L98.9015 17.524C99.2002 17.156 99.5362 16.8547 99.9095 16.62C100.283 16.3853 100.715 16.268 101.206 16.268C101.75 16.268 102.19 16.42 102.526 16.724C102.867 17.028 103.112 17.4387 103.262 17.956C103.379 17.6627 103.528 17.4093 103.71 17.196C103.896 16.9827 104.104 16.8067 104.334 16.668C104.563 16.5293 104.806 16.428 105.062 16.364C105.323 16.3 105.587 16.268 105.854 16.268C106.28 16.268 106.659 16.3373 106.99 16.476C107.326 16.6093 107.608 16.8067 107.838 17.068C108.072 17.3293 108.251 17.652 108.374 18.036C108.496 18.4147 108.558 18.8493 108.558 19.34V24.5H107.126V19.34C107.126 18.7053 106.987 18.2253 106.71 17.9C106.432 17.5693 106.032 17.404 105.51 17.404C105.275 17.404 105.051 17.4467 104.838 17.532C104.63 17.612 104.446 17.732 104.286 17.892C104.126 18.052 103.998 18.2547 103.902 18.5C103.811 18.74 103.766 19.02 103.766 19.34V24.5H102.334V19.34C102.334 18.6893 102.203 18.204 101.942 17.884C101.68 17.564 101.299 17.404 100.798 17.404C100.446 17.404 100.12 17.5 99.8215 17.692C99.5228 17.8787 99.2482 18.1347 98.9975 18.46V24.5H97.5655ZM117.511 16.396L112.991 26.892C112.943 26.9987 112.881 27.084 112.807 27.148C112.737 27.212 112.628 27.244 112.479 27.244H111.423L112.903 24.028L109.559 16.396H110.791C110.913 16.396 111.009 16.428 111.079 16.492C111.153 16.5507 111.204 16.6173 111.231 16.692L113.399 21.796C113.484 22.02 113.556 22.2547 113.615 22.5C113.689 22.2493 113.769 22.012 113.855 21.788L115.959 16.692C115.991 16.6067 116.044 16.5373 116.119 16.484C116.199 16.4253 116.287 16.396 116.383 16.396H117.511Z" fill="#444444"></path><g clip-path="url(#html-logo-footer_0)"><path d="M154.643 1.51575L154.5 1.5L141 2.90733V27.5129L154.5 35.5L168 27.5129V2.90733L154.643 1.51575ZM166.234 26.5151L154.5 33.4573L142.766 26.5151V16.4293L154.451 23.3451L154.47 24.5984L146.454 19.8548L146.443 21.0801L154.489 25.8885L154.509 27.175L146.464 22.4174L146.454 23.6427L154.5 28.4511L162.624 23.6182V22.3929V18.409L166.243 16.2595L166.234 26.5151ZM166.234 14.9519L163.015 16.8319L161.533 17.7071L154.467 13.5201L154.456 14.7454L160.496 18.318L160.443 18.3495L160.313 18.4247L159.454 18.9166L154.467 15.9689L154.456 17.1942L158.392 19.5222L157.459 20.1314L157.438 20.1436L154.467 18.402L154.456 19.6273L156.403 20.7615L154.416 21.9483L142.797 15.0762L154.435 8.11831L166.234 14.9519ZM166.234 13.7266L154.44 6.81075L142.766 13.7196V4.4897L154.5 3.26442L166.234 4.4897V13.7266Z" fill="#666666"></path></g><defs><clipPath id="html-logo-footer_0"><rect width="27" height="34" fill="white" transform="translate(141 1.5)"></rect></clipPath></defs></svg><svg viewBox="0 0 32 12" fill="none" id="icon_arrow"><path stroke="#000" stroke-width="2" d="M0 6h18"></path><path d="m24 6-6.75 5.2v-10.4l6.75 5.2Z" fill="#000"></path></svg><svg viewBox="0 0 25 30" fill="none" id="icon_eat"><path fill-rule="evenodd" clip-rule="evenodd" d="M18.6173 0.0761497C18.991 -0.0786313 19.4211 0.00692445 19.7071 0.292922C20.6156 1.20142 21.8038 3.17065 22.7659 6.21082C23.7373 9.28039 24.5 13.5081 24.5 19C24.5 19.5523 24.0523 20 23.5 20H20V29C20 29.5523 19.5523 30 19 30C18.4477 30 18 29.5523 18 29V1.00003C18 0.595567 18.2436 0.230931 18.6173 0.0761497ZM20 18H22.4912C22.4053 13.1836 21.7051 9.48755 20.8591 6.81424C20.5807 5.93457 20.2885 5.1715 20 4.51895V18Z" fill="white"></path><path fill-rule="evenodd" clip-rule="evenodd" d="M6 0C6.55228 0 7 0.447715 7 1V29C7 29.5523 6.55228 30 6 30C5.44772 30 5 29.5523 5 29V1C5 0.447715 5.44772 0 6 0Z" fill="white"></path><path fill-rule="evenodd" clip-rule="evenodd" d="M1.5 0C2.05228 0 2.5 0.447715 2.5 1V6.5C2.5 7.05686 2.69203 7.81518 3.20088 8.41656C3.68001 8.98281 4.51446 9.5 5.99993 9.5C6.55221 9.5 6.99993 9.94771 6.99993 10.5C6.99993 11.0523 6.55221 11.5 5.99993 11.5C3.98547 11.5 2.56995 10.7672 1.6741 9.70844C0.807973 8.68482 0.5 7.44314 0.5 6.5V1C0.5 0.447715 0.947715 0 1.5 0Z" fill="white"></path><path fill-rule="evenodd" clip-rule="evenodd" d="M10.5 0C9.94771 0 9.5 0.447715 9.5 1V6.5C9.5 7.05686 9.30797 7.81518 8.79912 8.41656C8.31999 8.98281 7.4854 9.5 5.99993 9.5C5.44765 9.5 5.00007 9.94771 5.00007 10.5C5.00007 11.0523 5.44765 11.5 5.99993 11.5C8.01439 11.5 9.43005 10.7672 10.3259 9.70844C11.192 8.68482 11.5 7.44314 11.5 6.5V1C11.5 0.447715 11.0523 0 10.5 0Z" fill="white"></path></svg><svg viewBox="0 0 80 83" fill="none" id="icon_gift"><path d="M65.66 35.83h-51.27a3.27 3.27 0 0 1-3.26-3.26v-9.78c0-1.8 1.46-3.26 3.26-3.26h51.27c1.8 0 3.26 1.47 3.26 3.26v9.78c0 1.8-1.46 3.26-3.26 3.26Zm-51.27-13.8a.77.77 0 0 0-.76.76v9.78c0 .42.34.76.76.76h51.27c.42 0 .76-.34.76-.76v-9.78a.77.77 0 0 0-.76-.76h-51.27Z" fill="#fff"></path><path d="M58.5 69.3h-36.96a6.29 6.29 0 0 1-6.28-6.27v-28.45a1.25 1.25 0 0 1 2.5 0v28.45c0 2.08 1.7 3.78 3.78 3.78h36.97c2.08 0 3.78-1.7 3.78-3.78v-28.45a1.25 1.25 0 0 1 2.5 0v28.45a6.29 6.29 0 0 1-6.28 6.28Z" fill="#fff"></path><path d="M40.02 69.3c-.69 0-1.25-.55-1.25-1.24v-33.48a1.25 1.25 0 0 1 2.5 0v33.48c0 .69-.56 1.25-1.25 1.25Zm-15.6-47.27a8.08 8.08 0 0 1 7.69-14.2c5.96 3.23 9.18 12.24 9.31 12.62l-2.36.83c-.03-.08-3.03-8.48-8.14-11.25a5.58 5.58 0 0 0-5.3 9.8l-1.2 2.2Z" fill="#fff"></path><path d="m55.62 22.03-1.19-2.2a5.54 5.54 0 0 0 2.25-7.55 5.53 5.53 0 0 0-7.55-2.25c-5.1 2.77-8.12 11.17-8.15 11.25l-2.36-.83c.14-.38 3.36-9.39 9.32-12.62a8.02 8.02 0 0 1 6.14-.64c2.07.62 3.77 2 4.8 3.9a8.01 8.01 0 0 1 .64 6.14 8.03 8.03 0 0 1-3.9 4.8Zm7.92 30.54h-47.03a1.25 1.25 0 0 1 0-2.5h47.03a1.25 1.25 0 0 1 0 2.5Z" fill="#fff"></path></svg><svg viewBox="0 0 202 59" fill="none" id="logo-desktop"><g clip-path="url(#logo-desktop_0)"><path d="M59.88 23.8a25.43 25.43 0 0 0-8.05-10.37 25.72 25.72 0 0 0-25.29-3.35 25.6 25.6 0 0 0-10.51 7.92 25.3 25.3 0 0 0-3.55 25.05 25.42 25.42 0 0 0 7.9 10.49 25.72 25.72 0 0 0 12.13 5.18c-.58-2.07-1.17-4.36-1.69-6.8 1.51.98 3.1 1.83 4.76 2.54 0 0 .12 2.14.28 4.53 1.79.03 3.58-.13 5.33-.47a2.1 2.1 0 0 1 0-.75c.3-1.85 1.1-5.2 1.25-7.35a15.11 15.11 0 0 0 2.9-3.68l-.06.44c-.55 4.22-1.7 8.74-2.4 9.98-.22.42-.5.8-.83 1.15a25.73 25.73 0 0 0 16.96-13.16 25.27 25.27 0 0 0 .87-21.34Zm-1.47 3.77c-.44.42-1.35.71-1.5-.58-.15-1.29-.19-2.2-.19-2.2s-1.93-3.4-2.65-3.43c-.72-.04-5.83 3.44-7.18 4.96-1.17 1.28-1.4 1.19-1.4 3.44 0 1.7.22 8.1.1 13l-8.15 2.15c-2.56.73-5.17 1.3-7.8 1.71l-1-5.78h-.14l-2.57-13.07s-3.8-1.42-5.2-1.81a3.79 3.79 0 0 0-4 .62 5.03 5.03 0 0 0-1.74 3.82c.21.46.37.95.48 1.44.05.48-1.2.43-2 .43s-.92-1.43-.29-3.1c.5-1.3 1.1-2.54 1.82-3.72a11.78 11.78 0 0 1 2.07-2.86s.14-.34 1.25-.24c1.11.1 7.28.42 7.28.42l.05-2.25c6.7-.92 13.47-1.36 20.24-1.33v1.82a22.67 22.67 0 0 1 8.14-1.98.92.92 0 0 1 .77.38c.34.43 2.41 2.98 2.65 3.34.68.96 1.29 1.95 1.83 2.98a6.16 6.16 0 0 1-.87 1.83Z" fill="#FDC305"></path><path d="m56.46 21.5 1 1.27c.68.96 1.29 1.95 1.83 2.98a6.17 6.17 0 0 1-.86 1.77c-.44.42-1.35.71-1.5-.58a52.31 52.31 0 0 1-.2-2.14s-1.94-3.4-2.66-3.44c-.72-.04-5.83 3.44-7.18 4.96-1.17 1.28-1.4 1.19-1.4 3.44 0 1.49.17 6.6.13 11.14 1.81.2 4.47.7 5.27 1.86 0 0-.29-7.12 7.81-3.39 0 0 .28-9.71 11.46-7.22a43.67 43.67 0 0 0-13.7-10.65Zm-10.53-2.3c.04-5.5-.43-11-1.4-16.4 0 0-.15-1.3-.87-.24-.6 1.26-1 2.6-1.2 3.97a71.46 71.46 0 0 0-12.82.33c-.82-2.72-2.22-3.96-2.89-3.64-.67.33-.75 3.26-.75 3.26l-.33 14.04c6.71-.92 13.49-1.36 20.26-1.33Z" fill="#F06351"></path><path d="M45.35 46.74c.13-1.06.2-2.47.24-4.03l-8.15 2.16a64.43 64.43 0 0 1-7.8 1.75l1.11 4.96c0 .11 0 .22.07.33a32.4 32.4 0 0 0 4.76 2.53 42.48 42.48 0 0 0 6.88-4.1v.06a15.12 15.12 0 0 0 2.9-3.66Z" fill="#E55645"></path><path d="M32 16.09c-.05-.1 1 .67 1.41.91.41.24.61.42.61.59 0 .17-.26.33-.62.33s-.92-.11-1-.25c-.08-.14.6 0 .94 0h.3a8.05 8.05 0 0 1-1.64-1.58Zm7.5.11s-1 1.27-1.09 1.33c-.09.06-.17.33.2.29.4-.07.81-.16 1.21-.28.11-.06.07-.2-.12-.18-.19.02-.68.05-1 .1l.85-1.25s.03-.12-.05-.01Zm-3.14 6.06c.47-.2.85-.55 1.1-1 .27-.65 0-.9-.45-.98-.6-.11-1.23 0-1.75.33-.39.37-.34.73 0 1 .34.26.7.48 1.1.65Z" fill="#000"></path><path d="M36 23.5c-.11.23-.27.44-.46.6-.28.23-.63.36-1 .38a2.2 2.2 0 0 1-1.54-.44 2 2 0 0 1-.53-.44 1 1 0 0 0-.36-.25s.75 4.08 2.57 4.73c1.82.66 2.16-.75 2.21-1.13a5.55 5.55 0 0 0-.82-3.21c0-.3-.02-.1-.07-.23Z" fill="#F06351"></path><path d="M34.3 24.64a3.52 3.52 0 0 1-2.35-1.42.15.15 0 0 1 0-.2.14.14 0 0 1 .16-.03l.04.03a3.2 3.2 0 0 0 2.11 1.3 2.12 2.12 0 0 0 1.64-.99l.14-.19.1.22s.38.75 1 .8c.62.03 1.06-.42 1.63-1.29a.14.14 0 0 1 .2-.04.14.14 0 0 1 .04.2c-.67.97-1.3 1.44-1.89 1.4a1.56 1.56 0 0 1-1.12-.72 2.25 2.25 0 0 1-1.7.93Z" fill="#000"></path><path d="M36.26 38a3.73 3.73 0 0 0 3.75-3.73 3.73 3.73 0 0 0-3.75-3.72 3.73 3.73 0 0 0-3.75 3.72 3.73 3.73 0 0 0 3.75 3.72Z" fill="#FDC305"></path><path d="m41.23 31.25-3.13 1.3 1.15-5.59-7.5 9.68 3.13-1.3-1.15 5.6 7.5-9.7Zm-7.39 3.8 4.16-5.37-.8 3.97 2-.82-4.2 5.38.81-3.97-1.97.8Zm-1.4-1.46a1.12 1.12 0 1 0 0-2.23 1.12 1.12 0 1 0 0 2.22Zm6.52 4.02a.8.8 0 0 0 .8-.78.79.79 0 0 0-.8-.78.79.79 0 0 0-.79.78c0 .43.36.78.8.78Zm.96-2.15c.2 0 .35-.15.35-.35a.34.34 0 0 0-.35-.34c-.2 0-.35.15-.35.34 0 .2.16.35.35.35Z" fill="#111"></path><path d="M45.88 20.99a57.22 57.22 0 0 0-5.09 5.17 31.79 31.79 0 0 1-5.3 4.86c-.23-.53-1.64-1.51-1.64-1.51s-3.14-2.13-5.2-3.8a31.78 31.78 0 0 1-3.14-2.98l-2-.11a22.62 22.62 0 0 0 12 8.76c.86-.13 3.28-1.85 5.1-3.25a57.44 57.44 0 0 0 6-5.86 6.4 6.4 0 0 0 1.13-1.98c-1.14.37-1.86.7-1.86.7Z" fill="#F06351"></path><path d="m65.22 3.47-8.46 9.37-1.22-1.98 8.15-10.86 1.53 3.47Zm-2.57 13.65 5.54-4.08-.78-3.7-5.4 4.77.64 3.01Zm-2.73 31.85 6.13 3.16 3.01-2.33-6.69-2.72-2.45 1.9Zm-57.97-43.05 3.07-3.33 9.29 8.93-1.22 2.26-11.14-7.86Zm5.43 10.23-4.7-3.1-2.4 3.83 5.15 2.38 1.95-3.11Zm6.53 35.98-4.55 3.32 2.8 3.55 4.02-3.99-2.27-2.88Z" fill="#FDC305"></path><path d="M25.93 27.77s-3.8-1.42-5.2-1.81a3.79 3.79 0 0 0-4 .62 5.03 5.03 0 0 0-1.74 3.82c.21.46.37.95.48 1.44.05.48-1.2.43-2 .43s-.92-1.43-.29-3.1c.5-1.3 1.1-2.54 1.82-3.72-5.45 2.82-15 9.33-15 9.33a46.2 46.2 0 0 1 8.19.24c5.25.52 5 4.63 5 4.63 1.85-.5 3.73-.88 5.63-1.1 2.12-.14 2.27 2.1 2.27 2.1l.53 3.83c.8-.87 1.7-1.65 2.65-2.34a6.1 6.1 0 0 1 4.38-1.3l-2.72-13.07Z" fill="#F06351"></path><path d="M85.66 41.66a8.17 8.17 0 0 1-1.4-5.15v-7.44a8.3 8.3 0 0 1 1.38-5.2c.93-1.18 2.51-1.77 4.75-1.76 2.24 0 3.76.53 4.55 1.56a6.63 6.63 0 0 1 1.33 4.45v1.75h-4.14v-1.9c0-.5-.04-1-.13-1.49a1.66 1.66 0 0 0-.47-.94 1.56 1.56 0 0 0-1.15-.36 1.47 1.47 0 0 0-1.5.74 5.6 5.6 0 0 0-.34 2.18v9.44c-.04.75.1 1.5.4 2.19a1.47 1.47 0 0 0 1.44.72 1.36 1.36 0 0 0 1.4-.73c.25-.7.35-1.44.31-2.18v-1.98h4.14v1.72a7.15 7.15 0 0 1-1.23 4.57c-.88 1.1-2.4 1.63-4.56 1.63-2.16 0-3.85-.6-4.78-1.82Zm16.26-19.26h4.73l4 20.83h-3.94l-.7-4.6h-3.33l-.8 4.57h-4l4.04-20.8Zm3.64 13.6-1.25-8.36-1.25 8.37h2.5Zm8.16-10.47h-3.23v-3.13h10.72v3.13h-3.2v17.67h-4.3l.02-17.67Z" fill="#111"></path><path d="M129.62 22.4h8.13v2.16h-5.2v6.87h4.22v2.06h-4.22v7.63h5.25v2.08h-8.18v-20.8Zm10.54 0h2l6 13.82v-13.82h2.44v20.83h-1.87l-6-14.2v14.17h-2.48l-.1-20.8Zm13.67 0h8.12v2.16h-5.2v6.87h4.26v2.06h-4.22v7.63h5.22v2.08h-8.18v-20.8Zm10.53 0h4.22a7.04 7.04 0 0 1 4.67 1.3c1 .86 1.49 2.27 1.49 4.22 0 2.65-.87 4.26-2.6 4.85l3 10.43h-2.83l-2.75-9.76h-2.27v9.76h-2.93v-20.8Zm4 8.93a3.9 3.9 0 0 0 2.7-.76 3.54 3.54 0 0 0 .82-2.69 5.76 5.76 0 0 0-.3-1.98 1.88 1.88 0 0 0-1-1.07 4.8 4.8 0 0 0-2.04-.35h-1.3v6.88l1.12-.03Zm10.32 10.33a9.11 9.11 0 0 1-1.27-5.3v-6.95a13 13 0 0 1 .5-3.97c.29-.97.9-1.81 1.74-2.39a5.9 5.9 0 0 1 3.36-.83 5.3 5.3 0 0 1 4.18 1.47 6.9 6.9 0 0 1 1.28 4.59v.77h-2.75v-.64a11.3 11.3 0 0 0-.18-2.3 2 2 0 0 0-.76-1.22 3.02 3.02 0 0 0-1.72-.4c-.65-.06-1.3.13-1.81.55-.42.39-.69.9-.77 1.46-.13.82-.19 1.65-.17 2.47v7.73a7.4 7.4 0 0 0 .59 3.43 2.83 2.83 0 0 0 3.5.73c.38-.2.71-.47.97-.82a8 8 0 0 0 .6-3.62v-1.46h-2.65v-2.06h5.3v10.3h-1.81l-.3-2.4a3.66 3.66 0 0 1-3.72 2.66 4.7 4.7 0 0 1-4.11-1.8Zm16.02-5.8-4.53-13.46h2.72l3.2 10.04 3.17-10.04h2.75l-4.5 13.46v7.34h-2.8l-.01-7.34Z" fill="#444"></path></g><defs><clipPath id="logo-desktop_0"><path fill="#fff" d="M0 0h202v59h-202z"></path></clipPath></defs></svg><svg viewBox="0 0 27 35" fill="none" id="logo-footer-pic"><g clip-path="url(#logo-footer-pic_0)"><path d="M13.6426 0.515754L13.5 0.5L0 1.90733V26.5129L13.5 34.5L27 26.5129V1.90733L13.6426 0.515754ZM25.2344 25.5151L13.5 32.4573L1.76561 25.5151V15.4293L13.4507 22.3451L13.4701 23.5984L5.45351 18.8548L5.44295 20.0801L13.4894 24.8885L13.5088 26.175L5.46408 21.4174L5.45351 22.6427L13.5 27.4511L21.6239 22.6182V21.3929V17.409L25.2432 15.2595L25.2344 25.5151ZM25.2344 13.9519L22.0147 15.8319L20.5325 16.7071L13.4666 12.5201L13.456 13.7454L19.4957 17.318L19.4429 17.3495L19.3126 17.4247L18.4536 17.9166L13.4666 14.9689L13.456 16.1942L17.3921 18.5222L16.4591 19.1314L16.438 19.1436L13.4666 17.402L13.456 18.6273L15.4029 19.7615L13.4155 20.9483L1.7973 14.0762L13.4349 7.11831L25.2344 13.9519ZM25.2344 12.7266L13.4401 5.81075L1.76561 12.7196V3.4897L13.5 2.26442L25.2344 3.4897V12.7266Z" fill="#666666"></path></g><defs><clipPath id="logo-footer-pic_0"><rect width="27" height="34" fill="white" transform="translate(0 0.5)"></rect></clipPath></defs></svg><svg viewBox="0 0 112 16" fill="none" id="logo-footer-text"><path d="M9.752 1.036V12.5H8.2V7.284H2.016V12.5H0.464V1.036H2.016V6.148H8.2V1.036H9.752ZM20.4348 2.34H16.7228V12.5H15.1788V2.34H11.4588V1.036H20.4348V2.34ZM34.0639 1.036V12.5H32.7039V4.076C32.7039 3.964 32.7065 3.844 32.7119 3.716C32.7225 3.588 32.7332 3.45733 32.7439 3.324L28.8079 10.492C28.6852 10.732 28.4985 10.852 28.2479 10.852H28.0239C27.7732 10.852 27.5865 10.732 27.4639 10.492L23.4479 3.292C23.4799 3.57467 23.4959 3.836 23.4959 4.076V12.5H22.1359V1.036H23.2799C23.4185 1.036 23.5252 1.04933 23.5999 1.076C23.6745 1.10267 23.7465 1.17733 23.8159 1.3L27.7759 8.356C27.8399 8.484 27.9012 8.61733 27.9599 8.756C28.0239 8.89467 28.0825 9.036 28.1359 9.18C28.1892 9.036 28.2452 8.89467 28.3039 8.756C28.3625 8.612 28.4265 8.476 28.4959 8.348L32.3839 1.3C32.4479 1.17733 32.5172 1.10267 32.5919 1.076C32.6719 1.04933 32.7812 1.036 32.9199 1.036H34.0639ZM43.4993 11.196V12.5H36.9953V1.036H38.5393V11.196H43.4993ZM54.3801 8.244L52.5801 3.58C52.5268 3.44133 52.4708 3.28133 52.4121 3.1C52.3535 2.91333 52.2975 2.716 52.2441 2.508C52.1321 2.94 52.0175 3.3 51.9001 3.588L50.1001 8.244H54.3801ZM57.6121 12.5H56.4121C56.2735 12.5 56.1615 12.4653 56.0761 12.396C55.9908 12.3267 55.9268 12.2387 55.8841 12.132L54.8121 9.364H49.6681L48.5961 12.132C48.5641 12.228 48.5028 12.3133 48.4121 12.388C48.3215 12.4627 48.2095 12.5 48.0761 12.5H46.8761L51.4601 1.036H53.0281L57.6121 12.5ZM64.2055 5.836C64.1628 5.89467 64.1202 5.94 64.0775 5.972C64.0348 6.004 63.9762 6.02 63.9015 6.02C63.8215 6.02 63.7335 5.988 63.6375 5.924C63.5415 5.85467 63.4215 5.78 63.2775 5.7C63.1388 5.62 62.9655 5.548 62.7575 5.484C62.5548 5.41467 62.3042 5.38 62.0055 5.38C61.6055 5.38 61.2535 5.452 60.9495 5.596C60.6455 5.73467 60.3895 5.93733 60.1815 6.204C59.9788 6.47067 59.8242 6.79333 59.7175 7.172C59.6162 7.55067 59.5655 7.97467 59.5655 8.444C59.5655 8.93467 59.6215 9.372 59.7335 9.756C59.8455 10.1347 60.0028 10.4547 60.2055 10.716C60.4135 10.972 60.6615 11.1693 60.9495 11.308C61.2428 11.4413 61.5708 11.508 61.9335 11.508C62.2802 11.508 62.5655 11.468 62.7895 11.388C63.0135 11.3027 63.1975 11.2093 63.3415 11.108C63.4908 11.0067 63.6135 10.916 63.7095 10.836C63.8108 10.7507 63.9095 10.708 64.0055 10.708C64.1228 10.708 64.2135 10.7533 64.2775 10.844L64.6775 11.364C64.5015 11.5827 64.3015 11.7693 64.0775 11.924C63.8535 12.0787 63.6108 12.2093 63.3495 12.316C63.0935 12.4173 62.8242 12.492 62.5415 12.54C62.2588 12.588 61.9708 12.612 61.6775 12.612C61.1708 12.612 60.6988 12.5187 60.2615 12.332C59.8295 12.1453 59.4535 11.876 59.1335 11.524C58.8135 11.1667 58.5628 10.7293 58.3815 10.212C58.2002 9.69467 58.1095 9.10533 58.1095 8.444C58.1095 7.84133 58.1922 7.284 58.3575 6.772C58.5282 6.26 58.7735 5.82 59.0935 5.452C59.4188 5.07867 59.8162 4.788 60.2855 4.58C60.7602 4.372 61.3042 4.268 61.9175 4.268C62.4882 4.268 62.9895 4.36133 63.4215 4.548C63.8588 4.72933 64.2455 4.988 64.5815 5.324L64.2055 5.836ZM70.5981 8.852C69.9421 8.87333 69.3821 8.92667 68.9181 9.012C68.4595 9.092 68.0835 9.19867 67.7901 9.332C67.5021 9.46533 67.2915 9.62267 67.1581 9.804C67.0301 9.98533 66.9661 10.188 66.9661 10.412C66.9661 10.6253 67.0008 10.8093 67.0701 10.964C67.1395 11.1187 67.2328 11.2467 67.3501 11.348C67.4728 11.444 67.6141 11.516 67.7741 11.564C67.9395 11.6067 68.1155 11.628 68.3021 11.628C68.5528 11.628 68.7821 11.604 68.9901 11.556C69.1981 11.5027 69.3928 11.428 69.5741 11.332C69.7608 11.236 69.9368 11.1213 70.1021 10.988C70.2728 10.8547 70.4381 10.7027 70.5981 10.532V8.852ZM65.9981 5.54C66.4461 5.108 66.9288 4.78533 67.4461 4.572C67.9635 4.35867 68.5368 4.252 69.1661 4.252C69.6195 4.252 70.0221 4.32667 70.3741 4.476C70.7261 4.62533 71.0221 4.83333 71.2621 5.1C71.5021 5.36667 71.6835 5.68933 71.8061 6.068C71.9288 6.44667 71.9901 6.86267 71.9901 7.316V12.5H71.3581C71.2195 12.5 71.1128 12.4787 71.0381 12.436C70.9635 12.388 70.9048 12.2973 70.8621 12.164L70.7021 11.396C70.4888 11.5933 70.2808 11.7693 70.0781 11.924C69.8755 12.0733 69.6621 12.2013 69.4381 12.308C69.2141 12.4093 68.9741 12.4867 68.7181 12.54C68.4675 12.5987 68.1875 12.628 67.8781 12.628C67.5635 12.628 67.2675 12.5853 66.9901 12.5C66.7128 12.4093 66.4701 12.276 66.2621 12.1C66.0595 11.924 65.8968 11.7027 65.7741 11.436C65.6568 11.164 65.5981 10.844 65.5981 10.476C65.5981 10.156 65.6861 9.84933 65.8621 9.556C66.0381 9.25733 66.3235 8.99333 66.7181 8.764C67.1128 8.53467 67.6275 8.348 68.2621 8.204C68.8968 8.05467 69.6755 7.96933 70.5981 7.948V7.316C70.5981 6.68667 70.4621 6.212 70.1901 5.892C69.9181 5.56667 69.5208 5.404 68.9981 5.404C68.6461 5.404 68.3501 5.44933 68.1101 5.54C67.8755 5.62533 67.6701 5.724 67.4941 5.836C67.3235 5.94267 67.1741 6.04133 67.0461 6.132C66.9235 6.21733 66.8008 6.26 66.6781 6.26C66.5821 6.26 66.4995 6.236 66.4301 6.188C66.3608 6.13467 66.3021 6.07067 66.2541 5.996L65.9981 5.54ZM79.4393 6.324C79.1726 5.96667 78.8846 5.71867 78.5753 5.58C78.2659 5.436 77.9193 5.364 77.5353 5.364C76.7833 5.364 76.2046 5.63333 75.7993 6.172C75.3939 6.71067 75.1913 7.47867 75.1913 8.476C75.1913 9.004 75.2366 9.45733 75.3273 9.836C75.4179 10.2093 75.5513 10.5187 75.7273 10.764C75.9033 11.004 76.1193 11.18 76.3753 11.292C76.6313 11.404 76.9219 11.46 77.2473 11.46C77.7166 11.46 78.1246 11.3533 78.4713 11.14C78.8233 10.9267 79.1459 10.6253 79.4393 10.236V6.324ZM80.8633 0.716V12.5H80.0153C79.8126 12.5 79.6846 12.4013 79.6313 12.204L79.5033 11.22C79.1566 11.636 78.7619 11.972 78.3193 12.228C77.8766 12.484 77.3646 12.612 76.7833 12.612C76.3193 12.612 75.8979 12.524 75.5193 12.348C75.1406 12.1667 74.8179 11.9027 74.5513 11.556C74.2846 11.2093 74.0793 10.7773 73.9353 10.26C73.7913 9.74267 73.7193 9.148 73.7193 8.476C73.7193 7.87867 73.7993 7.324 73.9593 6.812C74.1193 6.29467 74.3486 5.84667 74.6473 5.468C74.9459 5.08933 75.3113 4.79333 75.7433 4.58C76.1806 4.36133 76.6713 4.252 77.2153 4.252C77.7113 4.252 78.1353 4.33733 78.4873 4.508C78.8446 4.67333 79.1619 4.90533 79.4393 5.204V0.716H80.8633ZM88.5364 7.564C88.5364 7.23333 88.4884 6.932 88.3924 6.66C88.3017 6.38267 88.1657 6.14533 87.9844 5.948C87.8084 5.74533 87.5924 5.59067 87.3364 5.484C87.0804 5.372 86.7897 5.316 86.4644 5.316C85.7817 5.316 85.2404 5.516 84.8404 5.916C84.4457 6.31067 84.2004 6.86 84.1044 7.564H88.5364ZM89.6884 11.364C89.5124 11.5773 89.3017 11.764 89.0564 11.924C88.811 12.0787 88.547 12.2067 88.2644 12.308C87.987 12.4093 87.699 12.484 87.4004 12.532C87.1017 12.5853 86.8057 12.612 86.5124 12.612C85.9524 12.612 85.435 12.5187 84.9604 12.332C84.491 12.14 84.083 11.8627 83.7364 11.5C83.395 11.132 83.1284 10.6787 82.9364 10.14C82.7444 9.60133 82.6484 8.98267 82.6484 8.284C82.6484 7.71867 82.7337 7.19067 82.9044 6.7C83.0804 6.20933 83.331 5.78533 83.6564 5.428C83.9817 5.06533 84.379 4.78267 84.8484 4.58C85.3177 4.372 85.8457 4.268 86.4324 4.268C86.9177 4.268 87.3657 4.35067 87.7764 4.516C88.1924 4.676 88.5497 4.91067 88.8484 5.22C89.1524 5.524 89.3897 5.90267 89.5604 6.356C89.731 6.804 89.8164 7.316 89.8164 7.892C89.8164 8.116 89.7924 8.26533 89.7444 8.34C89.6964 8.41467 89.6057 8.452 89.4724 8.452H84.0564C84.0724 8.964 84.1417 9.40933 84.2644 9.788C84.3924 10.1667 84.5684 10.484 84.7924 10.74C85.0164 10.9907 85.283 11.18 85.5924 11.308C85.9017 11.4307 86.2484 11.492 86.6324 11.492C86.9897 11.492 87.2964 11.452 87.5524 11.372C87.8137 11.2867 88.0377 11.196 88.2244 11.1C88.411 11.004 88.5657 10.916 88.6884 10.836C88.8164 10.7507 88.9257 10.708 89.0164 10.708C89.1337 10.708 89.2244 10.7533 89.2884 10.844L89.6884 11.364ZM91.5655 12.5V4.396H92.4215C92.6242 4.396 92.7495 4.49467 92.7975 4.692L92.9015 5.524C93.2002 5.156 93.5362 4.85467 93.9095 4.62C94.2828 4.38533 94.7148 4.268 95.2055 4.268C95.7495 4.268 96.1895 4.42 96.5255 4.724C96.8668 5.028 97.1122 5.43867 97.2615 5.956C97.3788 5.66267 97.5282 5.40933 97.7095 5.196C97.8962 4.98267 98.1042 4.80667 98.3335 4.668C98.5628 4.52933 98.8055 4.428 99.0615 4.364C99.3228 4.3 99.5868 4.268 99.8535 4.268C100.28 4.268 100.659 4.33733 100.99 4.476C101.326 4.60933 101.608 4.80667 101.838 5.068C102.072 5.32933 102.251 5.652 102.374 6.036C102.496 6.41467 102.558 6.84933 102.558 7.34V12.5H101.126V7.34C101.126 6.70533 100.987 6.22533 100.71 5.9C100.432 5.56933 100.032 5.404 99.5095 5.404C99.2748 5.404 99.0508 5.44667 98.8375 5.532C98.6295 5.612 98.4455 5.732 98.2855 5.892C98.1255 6.052 97.9975 6.25467 97.9015 6.5C97.8108 6.74 97.7655 7.02 97.7655 7.34V12.5H96.3335V7.34C96.3335 6.68933 96.2028 6.204 95.9415 5.884C95.6802 5.564 95.2988 5.404 94.7975 5.404C94.4455 5.404 94.1202 5.5 93.8215 5.692C93.5228 5.87867 93.2482 6.13467 92.9975 6.46V12.5H91.5655ZM111.511 4.396L106.991 14.892C106.943 14.9987 106.881 15.084 106.807 15.148C106.737 15.212 106.628 15.244 106.479 15.244H105.423L106.903 12.028L103.559 4.396H104.791C104.913 4.396 105.009 4.428 105.079 4.492C105.153 4.55067 105.204 4.61733 105.231 4.692L107.399 9.796C107.484 10.02 107.556 10.2547 107.615 10.5C107.689 10.2493 107.769 10.012 107.855 9.788L109.959 4.692C109.991 4.60667 110.044 4.53733 110.119 4.484C110.199 4.42533 110.287 4.396 110.383 4.396H111.511Z" fill="#444444"></path></svg><svg viewBox="0 0 27 35" fill="none" id="logo-footer"><g clip-path="url(#logo-footer_0)"><path d="m13.64.52-.14-.02-13.5 1.4v24.61l13.5 7.99 13.5-7.99v-24.6l-13.36-1.4Zm11.6 25-11.74 6.94-11.73-6.94v-10.1l11.68 6.93.02 1.25-8.02-4.75v1.23l8.04 4.8.02 1.3-8.05-4.76v1.22l8.04 4.81 8.12-4.83v-5.21l3.62-2.15v10.26Zm0-11.57-3.23 1.88-1.48.88-7.06-4.19-.01 1.23 6.04 3.57-.06.03-.13.07-.86.5-4.98-2.95-.01 1.22 3.93 2.33-.93.61-.02.01-2.97-1.74-.01 1.23 1.94 1.13-1.98 1.19-11.62-6.87 11.63-6.96 11.8 6.83Zm0-1.22-11.8-6.92-11.67 6.91v-9.23l11.73-1.23 11.73 1.23v9.24Z" fill="#666"></path></g><defs><clipPath id="logo-footer_0"><path fill="#fff" transform="translate(0 .5)" d="M0 0h27v34h-27z"></path></clipPath></defs></svg><svg viewBox="0 0 33 38" fill="none" id="logo-mobile"><g clip-path="url(#logo-mobile_0)"><path d="M6.01 20.93v-2.28c6.62-.93 13.3-1.37 19.98-1.34 0 .6 0 1.22-.06 1.84a24.9 24.9 0 0 1 5.94-1.84 16.77 16.77 0 0 0-6.77-8.29 16.25 16.25 0 0 0-19.92 2.08 16.95 16.95 0 0 0-5 9.5l5.83.33Zm20.97 3.55c-1.15 1.3-1.38 1.21-1.38 3.49v9.27a16.7 16.7 0 0 0 5.43-6.05 17.08 17.08 0 0 0 1.97-7.95 17.3 17.3 0 0 0-.32-3.13 32.86 32.86 0 0 0-5.7 4.37Zm-20.68 1.51s-3.75-1.46-5.14-1.85a8.33 8.33 0 0 0-1.16-.29c.1 2.92.96 5.76 2.46 8.24a16.63 16.63 0 0 0 6.14 5.91l-2.3-12.01Z" fill="#FDC305"></path><path d="M26.04 17.3a92.52 92.52 0 0 0-1.39-16.64s-.14-1.3-.88-.25c-.58 1.27-.98 2.6-1.19 3.99a68.3 68.3 0 0 0-12.65.34c-.78-2.72-2.16-3.98-2.82-3.73-.66.25-.71 3.34-.71 3.34l-.33 14.25a139.1 139.1 0 0 1 19.97-1.3Z" fill="#F06351"></path><path d="M12.3 14.15c0-.1.98.68 1.39.92.4.25.6.43.6.6 0 .17-.27.34-.62.34-.36 0-.9-.12-1-.27h1.23c-.6-.45-1.15-1-1.6-1.6Zm7.4.11-1.08 1.34c0 .06-.17.35.18.3.4-.06.81-.16 1.2-.29.11 0 .08-.2-.1-.17-.18.02-.69.05-1 .11l.84-1.27s.07-.13-.04-.02Zm-3.11 6.15c.46-.2.84-.56 1.08-1.01.28-.66 0-.92-.44-1.01-.6-.11-1.2.01-1.72.34-.39.37-.34.73-.05 1.01.35.27.73.5 1.13.67Z" fill="#000"></path><path d="M16.2 21.67a1.7 1.7 0 0 1-1.45.99 2.1 2.1 0 0 1-1.46-.43c-.2-.12-.37-.27-.52-.45-.1-.1-.22-.2-.36-.26 0 0 .74 4.14 2.54 4.8 1.8.66 2.12-.76 2.18-1.14a5.76 5.76 0 0 0-.8-3.27c-.03-.3-.04-.1-.14-.24Z" fill="#F06351"></path><path d="M14.57 22.82a3.36 3.36 0 0 1-2.35-1.53.14.14 0 0 1 .09-.13.14.14 0 0 1 .15.03c.5.7 1.25 1.17 2.09 1.31a2.04 2.04 0 0 0 1.61-1l.14-.2.1.21s.37.77 1 .8c.62.05 1.03-.4 1.59-1.28a.14.14 0 0 1 .2 0c.03.02.05.05.06.09 0 .03 0 .07-.02.1-.63 1.02-1.25 1.46-1.86 1.42a1.52 1.52 0 0 1-1.1-.77 2.25 2.25 0 0 1-1.7.95Z" fill="#000"></path><path d="M25.99 19.12a58.7 58.7 0 0 0-5.02 5.24 31.58 31.58 0 0 1-5.24 4.94c-.22-.53-1.6-1.52-1.6-1.52s-3.1-2.17-5.14-3.86a34.1 34.1 0 0 1-3.1-3.04l-1.98-.1a22.39 22.39 0 0 0 11.89 8.88c.85-.14 3.24-1.87 5.02-3.29a58.15 58.15 0 0 0 5.88-5.95c.5-.6.88-1.28 1.13-2.02-1.09.4-1.84.72-1.84.72Z" fill="#F06351"></path></g><defs><clipPath id="logo-mobile_0"><path fill="#fff" d="M0 0h33v38h-33z"></path></clipPath></defs></svg><svg viewBox="0 0 174 50" fill="none" id="logo-tablet"><g clip-path="url(#logo-tablet_0)"><path d="M51.2 19.05a22.3 22.3 0 0 0-6.88-9.13 21.5 21.5 0 0 0-21.62-2.95 21.95 21.95 0 0 0-9 6.97 22.76 22.76 0 0 0-3.04 22.04 22.31 22.31 0 0 0 6.78 9.22c3 2.42 6.57 4 10.36 4.56-.5-1.82-1-3.84-1.44-5.98 1.29.86 2.65 1.6 4.07 2.23 0 0 .1 1.88.24 3.99a21.7 21.7 0 0 0 4.55-.41 1.9 1.9 0 0 1 0-.67c.25-1.63.94-4.57 1.07-6.46.99-.94 1.83-2.03 2.48-3.24l-.05.39c-.47 3.71-1.45 7.68-2.05 8.78-.2.37-.43.7-.71 1 3.1-.74 6-2.16 8.5-4.15 2.5-2 4.55-4.53 6-7.42a22.73 22.73 0 0 0 .75-18.77Zm-1.25 3.3c-.38.38-1.15.64-1.28-.5a30.8 30.8 0 0 1-.16-1.93s-1.65-2.99-2.27-3.02c-.62-.04-4.99 3.02-6.14 4.36-1 1.12-1.2 1.05-1.2 3.03 0 1.49.19 7.12.09 11.43l-6.97 1.9a53.8 53.8 0 0 1-6.67 1.5l-.86-5.09h-.12l-2.2-11.49s-3.25-1.26-4.45-1.6a3.16 3.16 0 0 0-3.42.55 4.42 4.42 0 0 0-1.48 3.36c.18.4.32.83.4 1.27.05.42-1.02.37-1.7.37-.69 0-.79-1.25-.25-2.73a19.9 19.9 0 0 1 1.56-3.26c.46-.93 1.06-1.78 1.77-2.52 0 0 .12-.3 1.07-.21.95.09 6.22.37 6.22.37l.05-1.98c5.73-.8 11.51-1.2 17.3-1.17v1.6a18.95 18.95 0 0 1 6.97-1.74.76.76 0 0 1 .65.34c.3.37 2.06 2.61 2.27 2.94.57.83 1.1 1.7 1.57 2.61a5.5 5.5 0 0 1-.75 1.6v.02Z" fill="#FDC305"></path><path d="m48.28 17.02.86 1.12c.57.84 1.1 1.72 1.56 2.62a5.5 5.5 0 0 1-.73 1.55c-.38.38-1.16.63-1.28-.5-.13-1.14-.18-1.89-.18-1.89s-1.65-2.99-2.27-3.02c-.62-.04-4.99 3.02-6.14 4.36-1 1.12-1.2 1.05-1.2 3.03 0 1.3.15 5.8.11 9.8 1.55.17 3.83.6 4.51 1.63 0 0-.25-6.26 6.68-2.98 0 0 .24-8.54 9.8-6.35a37.5 37.5 0 0 0-11.72-9.37Zm-9-2.02c.03-4.84-.37-9.67-1.2-14.43 0 0-.13-1.13-.74-.2-.51 1.1-.86 2.27-1.03 3.48a59.42 59.42 0 0 0-10.96.3c-.7-2.4-1.9-3.49-2.47-3.2-.58.29-.65 2.86-.65 2.86l-.28 12.35a121 121 0 0 1 17.33-1.17Z" fill="#F06351"></path><path d="M38.78 39.22c.11-.93.17-2.17.2-3.54l-6.96 1.9a53.8 53.8 0 0 1-6.67 1.54l.95 4.36c0 .1 0 .2.06.29 1.3.85 2.65 1.6 4.07 2.22 2.07-1 4.04-2.21 5.88-3.6v.05c.98-.94 1.82-2.02 2.47-3.22Z" fill="#E55645"></path><path d="M27.37 12.26c-.05-.08.85.6 1.2.8.35.22.52.37.52.52 0 .15-.22.3-.53.3-.3 0-.78-.1-.85-.23-.07-.12.51 0 .8 0h.25c-.53-.4-1-.86-1.4-1.39Zm6.41.1s-.86 1.12-.93 1.17c-.08.05-.15.3.16.25.35-.05.7-.13 1.04-.24.1-.06.06-.18-.1-.16-.16.02-.58.04-.85.1l.72-1.11s.03-.1-.04-.01Zm-2.68 5.33c.4-.18.72-.49.93-.87.24-.58 0-.8-.38-.88-.52-.1-1.05.01-1.5.3-.33.32-.29.64 0 .87.3.24.6.43.94.58Z" fill="#000"></path><path d="M30.79 18.79a1.46 1.46 0 0 1-1.25.86c-.47.04-.94-.1-1.32-.39a1.7 1.7 0 0 1-.45-.4.85.85 0 0 0-.31-.21s.64 3.59 2.2 4.16c1.55.58 1.84-.66 1.89-1 .05-.99-.2-1.97-.7-2.82 0-.26-.02-.09-.06-.2Z" fill="#F06351"></path><path d="M29.33 19.78a2.96 2.96 0 0 1-2-1.24.13.13 0 0 1 0-.18.12.12 0 0 1 .13-.03l.03.03a2.78 2.78 0 0 0 1.8 1.14 1.78 1.78 0 0 0 1.41-.87l.12-.16.09.19s.32.66.85.7c.53.03.9-.37 1.4-1.13a.12.12 0 0 1 .17-.03c.02.01.04.04.05.08 0 .03 0 .06-.02.09-.57.86-1.1 1.27-1.62 1.23a1.3 1.3 0 0 1-.95-.64 1.95 1.95 0 0 1-1.46.82Z" fill="#000"></path><path d="M31 31.53a3.25 3.25 0 0 0 3.22-3.27 3.25 3.25 0 0 0-3.21-3.28 3.24 3.24 0 0 0-3.2 3.28c0 1.8 1.43 3.27 3.2 3.27Z" fill="#FDC305"></path><path d="m35.26 25.6-2.68 1.14.99-4.91-6.42 8.51 2.68-1.14-.98 4.92 6.4-8.53Zm-6.32 3.34 3.56-4.72-.7 3.49 1.71-.72-3.58 4.73.7-3.5-1.7.72Zm-1.2-1.29c.53 0 .96-.43.96-.97a.97.97 0 0 0-.96-.98.97.97 0 0 0-.96.98c0 .54.43.97.96.97Zm5.58 3.55c.37 0 .67-.31.67-.7 0-.37-.3-.68-.67-.68-.38 0-.68.3-.68.69 0 .38.3.69.68.69Zm.82-1.9a.3.3 0 0 0 .3-.3.3.3 0 0 0-.3-.3.3.3 0 0 0-.3.3c0 .17.13.3.3.3Z" fill="#111"></path><path d="M39.24 16.57c-1.55 1.42-3 2.94-4.36 4.55a27.48 27.48 0 0 1-4.54 4.27c-.19-.46-1.4-1.32-1.4-1.32s-2.68-1.88-4.44-3.35a27.62 27.62 0 0 1-2.68-2.62l-1.71-.1a19.39 19.39 0 0 0 10.26 7.72c.73-.13 2.8-1.64 4.35-2.87a49.8 49.8 0 0 0 5.13-5.15c.43-.52.76-1.1.98-1.75-.98.34-1.6.62-1.6.62Zm-17.06 5.97s-3.26-1.26-4.46-1.6a3.16 3.16 0 0 0-3.42.55 4.42 4.42 0 0 0-1.48 3.36c.18.4.32.83.41 1.27.04.42-1.03.37-1.71.37-.68 0-.79-1.25-.25-2.73a19.9 19.9 0 0 1 1.56-3.26c-4.66 2.48-12.83 8.2-12.83 8.2a38.4 38.4 0 0 1 7 .21c4.5.46 4.28 4.07 4.28 4.07 1.58-.44 3.19-.76 4.81-.96 1.82-.13 1.95 1.85 1.95 1.85l.45 3.36c.69-.76 1.45-1.45 2.27-2.06a5.11 5.11 0 0 1 3.74-1.13l-2.32-11.5Z" fill="#F06351"></path><path d="M74.22 32.47a6.8 6.8 0 0 1-1.2-4.34v-6.26a6.9 6.9 0 0 1 1.18-4.38c.8-1 2.15-1.5 4.08-1.49 1.92 0 3.22.44 3.9 1.31a5.51 5.51 0 0 1 1.14 3.75v1.47h-3.55v-1.6c0-.41-.04-.83-.11-1.24-.05-.3-.19-.58-.4-.8a1.35 1.35 0 0 0-1-.3 1.28 1.28 0 0 0-1.28.62 4.46 4.46 0 0 0-.3 1.84v7.95a3.9 3.9 0 0 0 .34 1.84 1.3 1.3 0 0 0 1.24.61c.25.03.5 0 .71-.12.22-.1.39-.28.5-.5.2-.59.3-1.2.26-1.83v-1.67h3.55v1.45a5.94 5.94 0 0 1-1.05 3.85c-.76.92-2.06 1.37-3.91 1.37s-3.3-.5-4.1-1.53Zm13.94-16.23h4.06l3.43 17.55h-3.38l-.6-3.88h-2.85l-.69 3.86h-3.43l3.46-17.53Zm3.13 11.47-1.08-7.06-1.08 7.06h2.16Zm6.99-8.83h-2.77v-2.64h9.19v2.64h-2.75v14.89h-3.67v-14.89Z" fill="#111"></path><path d="M111.91 16.24h6.98v1.82h-4.46v5.8h3.61v1.73h-3.61v6.42h4.5v1.76h-7.02v-17.53Zm9.04 0h1.72l5.14 11.64v-11.64h2.1v17.55h-1.6l-5.15-11.97v11.95h-2.13l-.08-17.53Zm11.73 0h6.96v1.82h-4.46v5.8h3.66v1.73h-3.62v6.42h4.47v1.76h-7.01v-17.53Zm9.02 0h3.63a6.12 6.12 0 0 1 4 1.1c.86.72 1.28 1.91 1.28 3.56 0 2.23-.74 3.59-2.22 4.08l2.57 8.79h-2.43l-2.36-8.23h-1.95v8.23h-2.51v-17.53Zm3.44 7.52c.83.08 1.65-.15 2.32-.63a2.96 2.96 0 0 0 .7-2.27 4.77 4.77 0 0 0-.25-1.67 1.58 1.58 0 0 0-.86-.9 4.18 4.18 0 0 0-1.76-.3h-1.1v5.8l.95-.03Zm8.86 8.71a7.57 7.57 0 0 1-1.1-4.47v-5.85c-.03-1.13.12-2.26.43-3.34.25-.82.77-1.53 1.5-2.02.86-.5 1.86-.75 2.87-.7a4.62 4.62 0 0 1 3.59 1.24 5.74 5.74 0 0 1 1.1 3.87v.65h-2.36v-.54c.01-.65-.04-1.3-.16-1.94a1.66 1.66 0 0 0-.65-1.03 2.63 2.63 0 0 0-1.47-.34 2.2 2.2 0 0 0-1.56.47c-.35.32-.58.76-.66 1.23-.1.69-.15 1.39-.14 2.08v6.51c-.07 1 .1 1.98.5 2.9a2.42 2.42 0 0 0 1.94.87 2.48 2.48 0 0 0 1.9-.95c.41-.97.6-2 .52-3.05v-1.24h-2.28v-1.73h4.55v8.68h-1.56l-.25-2.02c-.2.67-.62 1.26-1.2 1.66-.58.4-1.28.6-2 .57a4.09 4.09 0 0 1-3.52-1.5Zm13.73-4.89-3.88-11.34h2.33l2.75 8.46 2.71-8.46h2.36l-3.86 11.34v6.19h-2.4v-6.19Z" fill="#444"></path></g><defs><clipPath id="logo-tablet_0"><path fill="#fff" d="M0 0h174v50h-174z"></path></clipPath></defs></svg><svg viewBox="0 0 101 18" fill="none" id="logo-text-mobile"><g clip-path="url(#logo-text-mobile_0)" fill="#111"><path d="M1.26 16.54a6.86 6.86 0 0 1-1.26-4.3v-6.4c-.1-1.54.3-3.08 1.19-4.38.86-1 2.2-1.46 4.18-1.46 1.98 0 3.24.46 4.03 1.3a5.42 5.42 0 0 1 1.19 3.78v1.54h-3.87v-1.77a3.7 3.7 0 0 0-.24-1.54 1.16 1.16 0 0 0-1.1-.62c-.56 0-.95.16-1.11.54a4.85 4.85 0 0 0-.24 1.7v8.22c-.04.56.07 1.12.32 1.62.15.38.55.54 1.1.54.56 0 .87-.16 1.03-.54.18-.52.26-1.07.24-1.62v-1.84h3.87v1.54a5.77 5.77 0 0 1-1.19 3.84c-.79.93-2.13 1.39-4.03 1.39-1.9-.08-3.32-.54-4.1-1.54Zm13.99-16.31h4.5l3.33 17.54h-3.64l-.63-3.7h-2.6l-.64 3.7h-3.72l3.4-17.54Zm3.24 11.54-.95-6.85-.94 6.85h1.9Zm7.35-8.62h-2.68v-2.92h9.4v2.85h-2.69v14.69h-4.03v-14.62Zm13.91-2.92h6.96v1.85h-4.5v5.77h3.63v1.77h-3.64v6.46h4.5v1.77h-7.03v-17.62h.08Zm9.01 0h1.74l5.14 11.62v-11.62h2.05v17.54h-1.58l-5.21-12v12h-2.14v-17.54Zm11.3 0h6.96v1.85h-4.5v5.77h3.63v1.77h-3.64v6.46h4.5v1.77h-6.95v-17.62Zm9.01 0h3.64c1.43-.1 2.85.28 4.03 1.08.87.69 1.26 1.92 1.26 3.54 0 2.23-.7 3.61-2.21 4.07l2.53 8.77h-2.45l-2.37-8.23h-1.98v8.23h-2.53v-17.46h.08Zm3.48 7.54c.81.06 1.63-.15 2.3-.62.47-.38.7-1.15.7-2.3a4.85 4.85 0 0 0-.23-1.7 2.04 2.04 0 0 0-.87-.92 3.69 3.69 0 0 0-1.74-.3h-1.1v5.76h.94v.08Zm8.61 8.69a7.61 7.61 0 0 1-1.1-4.46v-5.85c-.02-1.11.11-2.22.4-3.3.26-.81.78-1.51 1.5-2 .88-.51 1.9-.75 2.92-.7 1.66 0 2.84.39 3.55 1.23a5.77 5.77 0 0 1 1.11 3.85v.62h-2.37v-.54c0-.65-.05-1.29-.16-1.93-.06-.4-.3-.76-.63-1a2.5 2.5 0 0 0-1.5-.38 2.42 2.42 0 0 0-1.58.46 1.75 1.75 0 0 0-.63 1.23c-.1.69-.16 1.38-.16 2.08v6.54c-.06 1 .1 2 .47 2.92.32.62.95.85 1.9.85a1.96 1.96 0 0 0 1.89-.93 6.9 6.9 0 0 0 .56-3.07v-1.23h-2.3v-1.77h4.59v8.69h-1.58l-.24-2c-.2.67-.64 1.25-1.22 1.66-.6.4-1.3.6-2.02.57a4.05 4.05 0 0 1-3.4-1.54Zm13.52-4.84-3.87-11.31h2.37l2.76 8.46 2.69-8.46h2.37l-3.87 11.3v6.16h-2.37v-6.15h-.08Z"></path></g><defs><clipPath id="logo-text-mobile_0"><path fill="#fff" d="M0 0h101v18h-101z"></path></clipPath></defs></svg><svg viewBox="0 0 101 19" fill="none" id="logo-text"><path d="M1.22 16.48a6.8 6.8 0 0 1-1.2-4.33v-6.27a6.9 6.9 0 0 1 1.18-4.38c.8-1 2.15-1.5 4.08-1.49 1.92 0 3.22.44 3.9 1.31a5.51 5.51 0 0 1 1.14 3.76v1.47h-3.55v-1.6c0-.42-.04-.84-.11-1.25a1.4 1.4 0 0 0-.4-.8 1.35 1.35 0 0 0-1-.3c-.25-.04-.5 0-.74.1-.23.12-.42.3-.54.52a4.46 4.46 0 0 0-.3 1.84v7.95a3.9 3.9 0 0 0 .34 1.84c.13.21.31.38.53.49.22.1.47.15.72.12.24.04.48 0 .7-.12.22-.1.39-.28.5-.5.2-.58.3-1.2.26-1.83v-1.67h3.55v1.45a5.94 5.94 0 0 1-1.05 3.85c-.76.92-2.06 1.37-3.91 1.37s-3.3-.5-4.1-1.53Zm13.94-16.23h4.06l3.43 17.55h-3.38l-.6-3.87h-2.85l-.69 3.85h-3.43l3.46-17.53Zm3.13 11.47-1.08-7.05-1.08 7.05h2.16Zm6.99-8.82h-2.77v-2.65h9.19v2.64h-2.74v14.89h-3.68v-14.89Z" fill="#111"></path><path d="M38.91.25h6.98v1.83h-4.46v5.79h3.62v1.73h-3.62v6.42h4.5v1.76h-7.02v-17.53Zm9.04 0h1.72l5.14 11.64v-11.64h2.1v17.55h-1.6l-5.15-11.96v11.94h-2.13l-.08-17.53Zm11.73 0h6.96v1.83h-4.46v5.79h3.66v1.73h-3.62v6.42h4.47v1.76h-7.01v-17.53Zm9.02 0h3.63a6.12 6.12 0 0 1 4 1.1c.86.73 1.28 1.91 1.28 3.56 0 2.23-.74 3.59-2.22 4.08l2.57 8.79h-2.43l-2.36-8.23h-1.95v8.23h-2.51v-17.53Zm3.44 7.52c.83.08 1.65-.14 2.32-.63a2.96 2.96 0 0 0 .7-2.26 4.77 4.77 0 0 0-.25-1.68 1.57 1.57 0 0 0-.86-.9 4.18 4.18 0 0 0-1.76-.3h-1.1v5.8l.95-.03Zm8.86 8.71a7.57 7.57 0 0 1-1.1-4.47v-5.85a11 11 0 0 1 .43-3.34c.25-.82.77-1.53 1.5-2.01a5.05 5.05 0 0 1 2.87-.7 4.62 4.62 0 0 1 3.59 1.23 5.74 5.74 0 0 1 1.1 3.87v.65h-2.36v-.54c.01-.65-.04-1.3-.16-1.94a1.67 1.67 0 0 0-.65-1.03 2.63 2.63 0 0 0-1.47-.34 2.2 2.2 0 0 0-1.56.47 2.2 2.2 0 0 0-.66 1.23c-.1.7-.15 1.39-.14 2.08v6.51c-.07 1 .1 1.98.5 2.9a2.42 2.42 0 0 0 1.94.87 2.48 2.48 0 0 0 1.9-.95c.41-.96.6-2 .52-3.05v-1.24h-2.28v-1.73h4.55v8.68h-1.56l-.25-2.02c-.2.67-.61 1.26-1.2 1.66-.58.4-1.28.6-2 .57a4.1 4.1 0 0 1-3.52-1.5Zm13.73-4.88-3.88-11.35h2.33l2.75 8.46 2.71-8.46h2.36l-3.86 11.34v6.19h-2.4v-6.19Z" fill="#444"></path></svg><svg viewBox="0 0 2 2" fill="none" id="logo"><path d="M1.14 1.3a.3.3 0 0 0 .3-.3.3.3 0 0 0-.3-.3.3.3 0 0 0-.3.3c0 .17.13.3.3.3Z" fill="#111"></path></svg><svg viewBox="0 0 24 24" fill="none" id="Logo_mobile"><path stroke="#000" stroke-width="2" d="M0 3h24m-24 8h24m-24 8h24"></path></svg><svg viewBox="0 0 60 60" fill="none" id="plus-big"><path stroke="#D3D3D3" stroke-width="2" d="M31 0v60m29-29h-60"></path></svg><svg viewBox="0 0 30 30" fill="none" id="plus-small"><path stroke="#D3D3D3" stroke-width="2" d="M15 0v30m15-15h-30"></path></svg><svg viewBox="0 0 20 18" fill="none" id="telegram-hover"><path fill-rule="evenodd" clip-rule="evenodd" d="M19.4608 0.152905C19.6393 0.302216 19.7255 0.534898 19.6872 0.764481L17.0611 16.5214C17.0244 16.7411 16.8789 16.9273 16.6745 17.0159C16.47 17.1045 16.2346 17.0833 16.0493 16.9597L8.17082 11.7074C8.01771 11.6054 7.91447 11.4437 7.88624 11.2619C7.858 11.08 7.90738 10.8947 8.02233 10.751L10.633 7.48773L6.27303 10.3944C6.077 10.525 5.82597 10.5407 5.61524 10.4353L0.362931 7.80915C0.127693 7.69153 -0.0146529 7.44488 0.00119976 7.18235C0.0170525 6.91983 0.188044 6.6921 0.435726 6.60364L18.8188 0.0382579C19.038 -0.0400244 19.2822 0.00359465 19.4608 0.152905ZM2.32626 7.32275L5.86168 9.09046L13.4231 4.0495C13.6925 3.86994 14.0525 3.91349 14.2712 4.1521C14.49 4.3907 14.5022 4.75314 14.3 5.00591L9.49502 11.0121L15.9328 15.3039L18.2083 1.65058L2.32626 7.32275Z" fill="#68B738"></path></svg><svg viewBox="0 0 28 22" fill="none" id="telegram-icon"><path fill-rule="evenodd" clip-rule="evenodd" d="M23.46 3.15c.18.15.27.38.23.61l-2.63 15.76a.66.66 0 0 1-1.01.44l-7.88-5.25a.66.66 0 0 1-.15-.96l2.61-3.26-4.36 2.9a.66.66 0 0 1-.65.05l-5.26-2.63a.66.66 0 0 1 .08-1.2l18.38-6.57a.66.66 0 0 1 .64.11Zm-17.13 7.17 3.53 1.77 7.56-5.04a.66.66 0 0 1 .88.96l-4.8 6 6.43 4.3 2.28-13.66-15.88 5.67Z" fill="#666"></path></svg><svg viewBox="0 0 27 17" fill="none" id="vkontakte-hover"><path d="M0 2.33876C0 1.48373 0.515103 1.02268 1.54531 0.955621L5.51515 0.980769C5.78158 0.980769 5.95921 1.10651 6.04802 1.35799C6.45655 2.61538 6.91392 3.70094 7.42014 4.61465C7.92637 5.52835 8.58801 6.58038 9.40507 7.77071C9.47611 7.9216 9.59157 7.99704 9.75143 7.99704C9.87576 7.99704 9.97345 7.93836 10.0445 7.82101L10.1244 7.54438L10.1511 3.19379C10.1511 2.89201 10.0756 2.69083 9.92461 2.59024C9.77363 2.48965 9.49388 2.4142 9.08535 2.36391C8.76563 2.31361 8.60577 2.12919 8.60577 1.81065C8.60577 1.74359 8.61465 1.69329 8.63241 1.65976C9.00542 0.57002 10.0711 0.0251479 11.8296 0.0251479L13.3216 0C13.9966 0 14.5561 0.15927 15.0001 0.477811C15.4442 0.796351 15.6662 1.29931 15.6662 1.98669V7.69527C15.7906 7.77909 15.906 7.82101 16.0126 7.82101C16.279 7.82101 16.5099 7.67012 16.7053 7.36834C18.6592 4.78649 19.716 3.05966 19.8759 2.18787C19.8759 2.1711 19.8936 2.12919 19.9291 2.06213C20.0535 1.81065 20.2577 1.5927 20.5419 1.40828C20.8261 1.22387 21.0748 1.09813 21.288 1.03107C21.359 0.997535 21.4389 0.980769 21.5277 0.980769H25.6574L25.9239 1.00592C26.2791 1.00592 26.5544 1.16519 26.7498 1.48373C26.8209 1.58432 26.8697 1.69329 26.8964 1.81065C26.923 1.92801 26.9408 2.04536 26.9496 2.16272C26.9585 2.28008 26.963 2.34714 26.963 2.36391V2.53994C26.8386 3.22732 26.5233 3.9608 26.0171 4.74038C25.5109 5.51997 24.867 6.36243 24.0855 7.26775C23.304 8.17308 22.8155 8.76825 22.6201 9.05326C22.4603 9.25444 22.3803 9.43886 22.3803 9.60651C22.3803 9.74063 22.4514 9.89152 22.5935 10.0592L26.4834 14.6864C26.6965 14.9546 26.8031 15.248 26.8031 15.5666C26.8031 15.9522 26.6432 16.2707 26.3235 16.5222C26.0038 16.7737 25.6219 16.9162 25.1779 16.9497L24.7249 16.9749H20.6752C20.6574 16.9749 20.6219 16.979 20.5686 16.9874C20.5153 16.9958 20.4798 17 20.462 17C20.0712 17 19.7071 16.8407 19.3696 16.5222C19.2453 16.3881 18.4105 15.3989 16.8652 13.5547C16.7764 13.4374 16.652 13.3284 16.4922 13.2278C16.4211 13.4961 16.3279 13.8817 16.2124 14.3846C16.097 14.8876 16.0126 15.248 15.9593 15.466L15.8794 15.8935C15.7018 16.4803 15.3287 16.8323 14.7604 16.9497L14.3874 16.9749H11.7763C10.3021 16.9749 8.83224 16.3378 7.36686 15.0636C5.90148 13.7894 4.58264 12.1423 3.41034 10.122C2.23803 8.10182 1.14566 5.75049 0.133216 3.06805C0.0444054 2.8501 0 2.607 0 2.33876ZM16.0126 8.85207C15.6396 8.85207 15.3021 8.75567 15.0001 8.56287C14.6982 8.37007 14.5472 8.10602 14.5472 7.77071V1.98669C14.5472 1.65138 14.4584 1.41248 14.2808 1.26997C14.1032 1.12747 13.7923 1.05621 13.3483 1.05621L11.8296 1.10651C11.0658 1.10651 10.4886 1.23225 10.0978 1.48373C10.8793 1.8358 11.2701 2.40582 11.2701 3.19379V7.61982C11.2346 8.03895 11.0569 8.38683 10.7372 8.66346C10.4175 8.94009 10.0623 9.0784 9.6715 9.0784C9.13863 9.0784 8.7301 8.83531 8.44591 8.34911C7.06046 6.37081 6.03025 4.4931 5.35529 2.71598L5.1155 2.06213L1.57195 2.03698C1.34104 2.03698 1.21227 2.04956 1.18562 2.0747C1.15898 2.09985 1.14566 2.1711 1.14566 2.28846C1.14566 2.43935 1.16342 2.59862 1.19895 2.76627L1.75845 4.17456C3.25048 7.81262 4.87127 10.6795 6.62085 12.7751C8.37042 14.8708 10.0889 15.9186 11.7763 15.9186H14.4406C14.5472 15.9186 14.6271 15.8893 14.6804 15.8306C14.7337 15.7719 14.7781 15.6588 14.8136 15.4911L14.8669 15.2396L15.3732 13.0266C15.5152 12.7249 15.6396 12.5237 15.7462 12.4231C15.9415 12.2387 16.1725 12.1465 16.4389 12.1465C16.8652 12.1465 17.3003 12.3895 17.7444 12.8757L20.0091 15.5917C20.1512 15.8097 20.3022 15.9186 20.462 15.9186H24.8581C25.391 15.9186 25.6574 15.7929 25.6574 15.5414C25.6574 15.4576 25.6308 15.3738 25.5775 15.2899L21.7142 10.7382C21.4123 10.3861 21.2613 10.0089 21.2613 9.60651C21.2613 9.20414 21.4034 8.81854 21.6876 8.4497C21.9185 8.1144 22.367 7.55695 23.0331 6.77737C23.6992 5.99778 24.2809 5.26849 24.7782 4.5895C25.2756 3.9105 25.6042 3.29438 25.764 2.74112L25.8439 2.4142C25.8262 2.38067 25.8173 2.32618 25.8173 2.25074C25.8173 2.1753 25.8084 2.11243 25.7907 2.06213H21.6077C21.3412 2.16272 21.1281 2.31361 20.9682 2.51479L20.8084 2.9926C20.3643 4.14941 19.2009 5.93491 17.3181 8.34911C16.9451 8.68442 16.5099 8.85207 16.0126 8.85207Z" fill="#68B738"></path></svg><svg viewBox="0 0 28 22" fill="none" id="vkontakte-icon"><path d="M1 5.34c0-.86.52-1.32 1.55-1.38l3.97.02c.26 0 .44.13.53.38.4 1.26.86 2.34 1.37 3.25.5.92 1.17 1.97 1.99 3.16.07.15.18.23.34.23.13 0 .22-.06.3-.18l.07-.28.03-4.35c0-.3-.07-.5-.23-.6-.15-.1-.43-.18-.83-.23-.32-.05-.48-.23-.48-.55 0-.07 0-.12.02-.15.38-1.09 1.44-1.63 3.2-1.63l1.5-.03c.67 0 1.23.16 1.67.48.44.32.67.82.67 1.5v5.72c.12.08.24.12.34.12.27 0 .5-.15.7-.45 1.95-2.58 3-4.31 3.17-5.18a.3.3 0 0 1 .05-.13c.12-.25.33-.47.61-.65.29-.19.53-.31.75-.38a.55.55 0 0 1 .24-.05h4.13l.26.03c.36 0 .63.16.83.47.07.1.12.21.15.33a2.4 2.4 0 0 1 .06.55v.18a6.11 6.11 0 0 1-.94 2.2 23.4 23.4 0 0 1-1.93 2.53c-.79.9-1.27 1.5-1.47 1.78a.93.93 0 0 0-.24.56c0 .13.07.28.21.45l3.9 4.63c.2.26.31.56.31.88 0 .38-.16.7-.48.95-.32.25-.7.4-1.14.43l-.46.02h-4.04c-.02 0-.06 0-.11.02a.86.86 0 0 1-.1.01c-.4 0-.76-.16-1.1-.48-.12-.13-.96-1.12-2.5-2.97a1.39 1.39 0 0 0-.38-.32 38.47 38.47 0 0 0-.53 2.24l-.08.42a1.4 1.4 0 0 1-1.12 1.06l-.37.02h-2.61c-1.48 0-2.95-.63-4.41-1.9a19.3 19.3 0 0 1-3.96-4.95 47.51 47.51 0 0 1-3.28-7.05 1.92 1.92 0 0 1-.13-.73Zm16.01 6.51c-.37 0-.7-.1-1.01-.29a.9.9 0 0 1-.45-.79v-5.78c0-.34-.1-.58-.27-.72-.18-.14-.49-.21-.93-.21l-1.52.05c-.76 0-1.34.12-1.73.37.78.36 1.17.93 1.17 1.71v4.43a1.5 1.5 0 0 1-.53 1.04 1.6 1.6 0 0 1-1.07.42c-.53 0-.94-.24-1.22-.73a26.16 26.16 0 0 1-3.1-5.63l-.23-.66-3.55-.02c-.23 0-.36.01-.38.03-.03.03-.04.1-.04.22 0 .15.01.3.05.48l.56 1.4c1.49 3.64 3.11 6.51 4.86 8.6 1.75 2.1 3.47 3.15 5.16 3.15h2.66c.1 0 .19-.03.24-.09.05-.06.1-.17.13-.34l.06-.25.5-2.21c.15-.3.27-.5.38-.6.2-.2.42-.28.69-.28.43 0 .86.24 1.3.73l2.27 2.71c.14.22.3.33.45.33h4.4c.53 0 .8-.13.8-.38a.47.47 0 0 0-.08-.25l-3.87-4.55c-.3-.35-.45-.73-.45-1.13 0-.4.14-.8.43-1.16.23-.34.68-.9 1.34-1.67.67-.78 1.25-1.51 1.75-2.19.5-.68.82-1.3.98-1.85l.08-.33a.37.37 0 0 1-.02-.16.54.54 0 0 0-.03-.19h-4.18c-.27.1-.48.25-.64.45l-.16.48c-.45 1.16-1.6 2.94-3.5 5.36-.36.33-.8.5-1.3.5Z" fill="#666"></path></svg><svg viewBox="0 0 24 19" fill="none" id="youtube-hover"><path d="M15.8509 8.79275L10.6145 5.30184C10.5159 5.23691 10.4016 5.19985 10.2837 5.19459C10.1657 5.18934 10.0486 5.21608 9.94459 5.27198C9.84061 5.32789 9.75368 5.41087 9.69302 5.51215C9.63236 5.61343 9.60022 5.72924 9.6 5.84729V12.8291C9.60013 12.9481 9.6327 13.0648 9.69421 13.1667C9.75572 13.2686 9.84384 13.3518 9.94909 13.4073C10.0524 13.4631 10.1691 13.4895 10.2864 13.4837C10.4037 13.478 10.5172 13.4402 10.6145 13.3746L15.8509 9.88366C15.9409 9.82395 16.0148 9.7429 16.0658 9.64772C16.1169 9.55255 16.1436 9.44621 16.1436 9.3382C16.1436 9.23019 16.1169 9.12385 16.0658 9.02868C16.0148 8.93351 15.9409 8.85245 15.8509 8.79275ZM10.9091 11.6073V7.06911L14.3127 9.3382L10.9091 11.6073ZM23.3891 3.04366C23.2942 2.67547 23.1131 2.33511 22.8609 2.05061C22.6086 1.76611 22.2924 1.54561 21.9382 1.40729C18.2182 -0.0217993 12.2509 1.91553e-05 12 1.91553e-05C11.7491 1.91553e-05 5.78182 -0.0217993 2.06182 1.40729C1.70764 1.54561 1.3914 1.76611 1.13914 2.05061C0.886889 2.33511 0.705838 2.67547 0.610909 3.04366C0.327273 4.11275 0 6.07638 0 9.3382C0 12.6 0.327273 14.5637 0.610909 15.6327C0.705838 16.0009 0.886889 16.3413 1.13914 16.6258C1.3914 16.9103 1.70764 17.1308 2.06182 17.2691C5.78182 18.6982 11.7491 18.6764 12 18.6764H12.0764C12.8291 18.6764 18.3927 18.6327 21.9382 17.2691C22.2924 17.1308 22.6086 16.9103 22.8609 16.6258C23.1131 16.3413 23.2942 16.0009 23.3891 15.6327C23.6727 14.5637 24 12.6 24 9.3382C24 6.07638 23.6727 4.11275 23.3891 3.04366ZM22.1236 15.3055C22.0807 15.472 21.999 15.6259 21.8853 15.7548C21.7715 15.8838 21.6289 15.984 21.4691 16.0473C17.9782 17.3891 12.0655 17.3673 12 17.3673C11.9345 17.3673 6.02182 17.3891 2.53091 16.0473C2.37107 15.984 2.22846 15.8838 2.11471 15.7548C2.00096 15.6259 1.91929 15.472 1.87636 15.3055C1.61455 14.3018 1.30909 12.4582 1.30909 9.3382C1.30909 6.2182 1.61455 4.37457 1.87636 3.37093C1.91929 3.20445 2.00096 3.05047 2.11471 2.92156C2.22846 2.79264 2.37107 2.69243 2.53091 2.62911C6.02182 1.28729 11.9345 1.30911 12 1.30911C12.0655 1.30911 17.9782 1.28729 21.4691 2.62911C21.6289 2.69243 21.7715 2.79264 21.8853 2.92156C21.999 3.05047 22.0807 3.20445 22.1236 3.37093C22.3855 4.37457 22.6909 6.2182 22.6909 9.3382C22.6909 12.4582 22.3855 14.3018 22.1236 15.3055Z" fill="#68B738"></path></svg><svg viewBox="0 0 28 22" fill="none" id="youtube-icon"><path d="m17.85 10.8-5.24-3.5a.65.65 0 0 0-1.01.55v6.98a.65.65 0 0 0 1.01.54l5.24-3.49a.65.65 0 0 0 0-1.09Zm-4.94 2.8v-4.53l3.4 2.27-3.4 2.27Zm12.48-8.56a2.4 2.4 0 0 0-1.45-1.63c-3.72-1.43-9.69-1.41-9.94-1.41s-6.22-.02-9.94 1.4a2.4 2.4 0 0 0-1.45 1.64 25.32 25.32 0 0 0-.61 6.3c0 3.26.33 5.22.61 6.3a2.4 2.4 0 0 0 1.45 1.63c3.72 1.43 9.69 1.4 9.94 1.4h.08c.75 0 6.31-.04 9.86-1.4a2.4 2.4 0 0 0 1.45-1.64c.28-1.07.61-3.03.61-6.3 0-3.25-.33-5.22-.61-6.29Zm-1.27 12.27a1.1 1.1 0 0 1-.65.74c-3.5 1.34-9.4 1.32-9.47 1.32-.07 0-5.98.02-9.47-1.32a1.09 1.09 0 0 1-.65-.74c-.27-1-.57-2.85-.57-5.97 0-3.12.3-4.97.57-5.97a1.1 1.1 0 0 1 .65-.74c3.5-1.34 9.4-1.32 9.47-1.32.07 0 5.98-.02 9.47 1.32a1.1 1.1 0 0 1 .65.74c.27 1 .57 2.85.57 5.97 0 3.12-.3 4.96-.57 5.97Z" fill="#666"></path></svg></svg>